<?xml version="1.0" encoding="UTF-8"?>
<svg width="30px" height="36px" viewBox="0 0 30 36" version="1.1" xmlns="http://www.w3.org/2000/svg" xmlns:xlink="http://www.w3.org/1999/xlink">
    <title>cookie-first-icon</title>
    <g id="Page-1" stroke="none" stroke-width="1" fill="none" fill-rule="evenodd">
        <g id="cookie-first-icon" transform="translate(0.000000, -0.000038)" fill="#0D56C9" fill-rule="nonzero">
            <path d="M26.8943167,26.8943208 C24.4264968,29.3709709 21.07354,30.7622049 17.5772667,30.760221 L17.5772667,35.1545397 C22.2387822,35.156802 26.709039,33.3014102 29.9989014,29.9989056 L26.8943167,26.8943208 Z" id="Path"></path>
            <path d="M18.5121576,17.6464814 L13.1829501,17.6464814 C13.1829501,17.6234112 13.1829501,17.6003411 13.1829501,17.5772709 C13.1818421,15.7907435 14.2624412,14.1813705 15.9164593,13.5061627 C17.5704774,12.8309548 19.4686431,13.2243282 20.7181046,14.5012492 L23.8226893,11.3966645 C21.3164733,8.86532066 17.5301596,8.09712355 14.2355672,9.45155373 C10.9409747,10.8059839 8.78977652,14.015134 8.78863337,17.5772709 C8.78863337,17.6003411 8.78863337,17.6234112 8.78863337,17.6464814 L8.78863337,17.6464814 L8.78863337,27.3941744 C5.2148954,24.1968819 3.66028002,19.3105176 4.72957966,14.6360251 C5.7988793,9.96153257 9.32325531,6.23699784 13.9316187,4.91137767 C18.5399821,3.5857575 23.5046885,4.86836268 26.8943167,8.26022095 L30,5.15453763 C26.7098953,1.85185722 22.2390772,-0.00320811011 17.5772667,0 C7.88560129,0 0,7.88560545 0,17.5772709 C0.0117321958,25.5889489 5.42886948,32.583376 13.1829501,34.5986566 L13.2060202,34.6041495 L13.2060202,30.0142857 L13.1829501,30.0065956 L13.1829501,21.9715876 L18.5121576,21.9715876" id="Path"></path>
        </g>
    </g>
</svg>