<svg xmlns="http://www.w3.org/2000/svg" viewBox="0 0 512 512">
    <path fill="#1e1e1e" d="M175.8 207.4l16.3-3.1V220h-17.9c-.4-.1-.6-.2-.9-.4-.2-.3-.4-.5-.4-.9V210.9c.1-1.7 1.2-3.1 2.9-3.5zm201.6-3.4H192.9v73.3h184.5V204zm-3.3 84.3h3.5v-5.1l-2.5-1.2-1.2-.5H337c4.1 2.8 6.8 7.5 6.8 12.8v.6H374c0-.1 0-.2-.1-.3-.4-.7-.5-1-.5-1.6v-4.1c.1-.4.3-.6.7-.6zm-54.1-6.9h-16.2c4.1 2.8 6.9 7.5 6.9 12.8v.6h2.7c-.1-.2-.1-.4-.1-.6-.1-5.4 2.6-10 6.7-12.8zm-33.3 0l-94-.1v13.5h87.2c0-.2-.1-.4-.1-.6 0-5.4 2.7-10 6.9-12.8zm23.2 12.7c0 8.1-6.6 14.7-14.7 14.7s-14.7-6.6-14.7-14.7 6.6-14.7 14.7-14.7c8 0 14.7 6.6 14.7 14.7zm-7.8 0c0-3.8-3.1-6.9-6.9-6.9-3.8 0-6.9 3.1-6.9 6.9 0 3.8 3.1 6.9 6.9 6.9 3.8 0 6.8-3 6.9-6.9zm-116.7 0c0 8.1-6.6 14.7-14.7 14.7s-14.7-6.6-14.7-14.7 6.6-14.7 14.7-14.7 14.7 6.6 14.7 14.7zm-5.9 0c0-4.9-3.9-8.8-8.8-8.8s-8.8 3.9-8.8 8.8 3.9 8.8 8.8 8.8c4.8.1 8.8-3.8 8.8-8.8zm163.8 0c0 8.1-6.6 14.7-14.7 14.7s-14.7-6.6-14.7-14.7 6.6-14.7 14.7-14.7 14.7 6.6 14.7 14.7zm-7.8 0c0-3.8-3.1-6.9-6.9-6.9-3.8 0-6.9 3.1-6.9 6.9 0 3.8 3.1 6.9 6.9 6.9 3.7 0 6.9-3 6.9-6.9zm-208.3-21.5v-18.4c0-1.8 1-2.1 1.9-2.1 0 0 3.7-20.5 4.6-24 .9-3.5 1.8-3.9 4.8-5 .5-.2 1.5-.4 2.8-.6h.7c5.9-.4 15.4-.7 22.7-.9h.4v-.1-.1-.1-.1c-.1-.2-.1-.4-.1-.7 5.4.1 10.3.5 11.2.6 1 .1 1.5.5 1.7.8.2.3 1 1 1.6 1.2.6.3.8.7.9 1.2 0 .4.2 2.1.3 2.9 0 0 .5-.1.6 0 .9 4.5 1.7 36.4 1.7 40.9h1.2v.3h-1.4c-.2 0-.4.2-.5.4H163c-1.2 0-3.5.4-5.6 1.3-1.8.7-4.2 2.1-5.7 4.6H135c-.3 0-.4.2-.7.4h-5.4c-1.3 0-1.7-2-1.7-2.5zm9.5-21.7c.2.3.6.4 1.2.4h5.8c3.1 0 4-.8 4.9-1.6l.7-.6c1.5-1.2 4.4-1.4 5.6-1.5.7 0 3.7-.2 7-.2 1.8 0 2.1-.8 2.1-1.9v-13.1c0-2-1.3-1.8-2.1-1.8l-20.4.1c-2 0-2.1.9-2.4 2.2l-.1.4c-.3 1.2-1.9 11.7-2.4 15.6-.3.9-.3 1.6.1 2zm-7.3 1.7c.8 0 1.2-.8 1.5-1.6.2-.8 4.9-21 4.9-21h-2.1c-1.2 5.8-4.2 22.2-4.3 22.4v.2zm54.8 22.6l-.1-6.2H183v.3h-19.9c-1.2 0-3.3.4-5.4 1.3-1.8.8-4.2 2.2-5.6 4.6H135v.6h-4.5c0 .1 0 1-.3 1.4l-1.6 1.7c-.3.3-.4.8-.4 1.2v.1h-.2c-.5 0-.5.2-.5.4v.8l.3 1v5.4l.2 2.1V296.4c-.1.4 0 .9.1 1.1.1.2.4.9.7 1.6.1.2.2.3.2.4.2.4.4.5.4.5s.4.1.5.1h.1s5.5.2 6 .2h.9c9.3-.1 14.5-.1 15.3-.1.1-.8.4-5 .4-6l.4-2.9c0-.5.4-2.9.6-3.7 2.6-11.2 8.8-12.7 15.3-12.7h6.3v.2c.1.1.3.4.4.4 1.5.3 2.9.8 4.3 1.6 4.1 2.3 8.9 7.9 8.9 20.9v3c0 .3 0 .7.2.8.1.1.2.1.3.1h2.8v-20.6h-1.7c-1.2-2.3-3.2-4.8-6.2-6.1zm197.2 21.5c.1.4.1.7.1 1.1-.1.7-.4 1.2-1.3 1.7-.5.2-1 .3-1.4.3-.3 0-.5 0-.7-.1-.2 0-.4-.1-.4-.2-.2-.1-.4-.3-.5-.4-.1-.1-.2-.3-.3-.4-.1-.2-.3-.4-.4-.6-.1-.1-.2-.2-.2-.3-.2-.4-.4-.8-.6-1.3-.1-.2-.2-.4-.3-.5-.1-.2-.2-.4-.3-.5-.1-.3-.2-.4-.3-.6v.1c0-.1-.1-.2-.1-.2s.1 0 .1.1c0-.1-.1-.1-.1-.1-.1-.1-.2-.2-.2-.3v-.1c-.1-.1-.1-.3-.2-.4-.1-.2-.2-.4-.2-.5V289h.3v-.3h4.2c.3 0 .4.2.5.4.1.1.3.8.5 1.7l.3.9c.1.4.3.8.4 1.2.1.3.1.4.2.6.2.4.3.8.4 1.1.1.4.2.8.3 1v.1c0 .3.1.7.2 1zm-.7.7c0-1-.8-1.8-1.8-1.8-1.1 0-1.8.8-1.8 1.8s.8 1.8 1.8 1.8 1.8-.9 1.8-1.8zm-1.9-93.4h-.8v73.3h2.8l4-6.2v-2.3l-6-64.8zm-215.5 6.6c-.4-2.4-.9-4.8-1.5-7.5-9.5 6.7-17.1 13-20.8 17.1-.7.8-.5 1.2-.2 1.6 8.3-4.3 15.4-7.9 22.5-11.2zm.1.7c-.4.2-.8.4-1.2.5.4-.1.9-.3 1.2-.5zm1.2 9.7c-.3-3.2-.5-6.2-1.1-9-6.2 2.8-12.4 5.9-19.9 9.8 5.9-.4 14.4-.6 21-.8z"/>
</svg>
