<svg xmlns="http://www.w3.org/2000/svg" viewBox="0 0 512 512">
    <path fill="#1e1e1e" d="M207 232.1v-22.6h1.2v22.6H207zm73.4 0v-22.6h-1.2v22.6h1.2zm72.1 0v-22.6h-1.2v22.6h1.2zm72.1 0v-22.6h-1.2v22.6h1.2zm72.2.2v-21.6h-1.2v21.6h1.2zm-31.9 0v-3.2H441v3.2h23.9zm-64.1 0v-3.2h-23.9v3.2h23.9zm-64.1 0v-3.2h-23.9v3.2h23.9zm82.1 53.8v.5l8.2-.4v-.4l-8.2.3zm53-1.5l-11.2.5c.5 1.7.9 3.4.9 5.2l8.7-.3c.3 0 .4.1.5.4.1.1.1.3.1.4l5-.2-.2-1.2-3.8-4.8zm-41 6.7c0-.4-.1-.7-.1-1 0-1.2.2-2.5.4-3.7l-13 .6-2.9 4.2v1.2l4.7-.2c-.1-.2-.1-.3 0-.4.1-.2.4-.4.5-.4l10.4-.3zm-10.3 1l5.4 6.9 7.6-.3c-1.3-2.1-2.2-4.4-2.6-7l-10.4.4zm39.1 5.5l5.9-.3 4.1-5.8.3-.4.4-.6.1-.1-8.8.3c-.2 2.5-.8 4.9-2 6.9zm-112.7-7.2H335l-19.5-6.2c-1.1-.6-.7-3-.7-3v-.1l-5-1.3v.7c-.4 2.4-.1 6.6 3.7 8.4l20.8 6.6H347v.5h6v-7.7l-6 .2v1.9zm160.9-60.4h-7.1v1.6h7.1c.1 0 2.7.1 2.7 2.9V286h1.5v-51.3c0-.1-.1-4.5-4.2-4.5zm-409.4 27v-6.6H77.7v6.6h20.7zm-26.1 0v-6.6h-3.8v6.6h3.8zm149.9 17.7c2.8 0 5.4.7 7.6 2.1h4.5v-3.1h-25.7v3h6.1c2.2-1.3 4.8-2 7.5-2zm-119.1 12.3v-9.8H65.4v13.5h104.5v-3h-66c-.4 0-.8-.3-.8-.7zm110.5-9.7h-28.4v13.4h21.6v-.6c0-5.3 2.7-10 6.8-12.8zm17.3 0c4 2.8 6.7 7.5 6.7 12.8v.6h24.5v-11.6l-3.7-1.8h-27.5zm-175.3 4.6c1.6 2.3 2.5 5.2 2.5 8.2 0 3-.9 5.9-2.5 8.2-.5.7-1.2 1.5-1.8 2.1-1.3 1.3-2.9 2.4-4.7 3.1-1.7.7-3.7 1.2-5.7 1.2-8.1 0-14.7-6.6-14.7-14.7s6.6-14.7 14.7-14.7c2 0 3.9.4 5.7 1.2 1.8.7 3.4 1.8 4.7 3.3.6.6 1.3 1.3 1.8 2.1zm-3.4 8.2c0-4.9-3.9-8.8-8.8-8.8s-8.8 3.9-8.8 8.8 3.9 8.8 8.8 8.8c4.8 0 8.8-3.9 8.8-8.8zm184.8 0c0 5.6-3.1 10.5-7.8 12.9-2.1 1.2-4.5 1.8-7 1.8-8.1 0-14.7-6.6-14.7-14.7s6.6-14.7 14.7-14.7c2.6 0 5 .6 7 1.8 4.7 2.4 7.8 7.2 7.8 12.9zm-7.9 0c0-3.8-3.1-6.9-6.9-6.9-3.8 0-6.9 3.1-6.9 6.9 0 3.8 3.1 6.9 6.9 6.9 3.8-.1 6.9-3.1 6.9-6.9zM0 268.8v-18.4c0-1.8 1-2.1 1.9-2.1 0 0 3.7-20.5 4.6-24 .9-3.5 1.8-3.9 4.8-5 2.9-1.1 18.2-2.7 24.4-2.7s12.3.4 13.3.6c1 .1 1.5.5 1.7.8.2.3 1 1 1.6 1.2.6.3.8.7.9 1.2 0 .4.2 2.1.3 2.9 0 0 .5-.1.6 0 .9 4.5 1.7 36.4 1.7 40.9H57v.3h-1.3c-.2 0-.4.2-.5.4H35.9c-1.2 0-3.5.4-5.6 1.3-1.8.7-4.2 2.1-5.7 4.6H7.7c-.3 0-.4.2-.6.5H1.7c-1.3 0-1.7-2-1.7-2.5zM9.5 247c.2.3.6.4 1.2.4h5.8c3.1 0 4-.8 4.9-1.6l.7-.6c1.5-1.2 4.4-1.4 5.6-1.5.7 0 3.7-.2 7-.2 1.8 0 2.1-.8 2.1-1.9v-13.1c0-2-1.3-1.8-2.1-1.8l-20.4.1c-2 0-2.1.9-2.4 2.2l-.1.4c-.3 1.2-1.9 11.7-2.4 15.6-.3.9-.3 1.6.1 2zm-7.4 1.6c.8.1 1.2-.7 1.4-1.6.2-.8 4.9-21 4.9-21h-2c-1.2 5.8-4.2 22.2-4.3 22.4v.2zm59.4 26.1c-.9-1.1-2-2.1-3.4-2.9-.4-.2-.7-.4-1.1-.5h-.1v-6.2h-1.2v.4H35.9c-1.2 0-3.3.4-5.4 1.3-1.8.8-4.2 2.2-5.6 4.6H7.7v.6H3.2c0 .1 0 1-.3 1.4L1.4 275c-.3.3-.4.8-.4 1.2v.1H.9c-.5 0-.5.2-.5.4v.8l.2 1v5.4l.2 2.1V292.5c-.1.4 0 .9.1 1.1.1.2.4.9.7 1.6.3.6.5.9.5 1 .1.1.5.1.5.1s5.5.2 6 .2h.9c9.3-.1 14.5-.1 15.3-.1.1-.8.4-5 .4-6l.4-2.9c0-.5.4-2.9.6-3.7C28.7 272.5 35 271 41.4 271h6.3v.2c.1.1.3.4.4.4 1.5.3 2.9.8 4.3 1.6 4.1 2.3 8.9 7.9 8.9 20.9v3c0 .3 0 .7.2.8.1.1.2.1.3.1h2.8v-20.7h-1.5c-.4-.9-.9-1.8-1.6-2.6zm6.4-46.7h-2.4v29.3h2.4V228zm5.1 29.2h1.5V228H73v29.2zm4.1-29.2h-1.5V257.3h1.5V228zm23.5 29.2V228H99v29.3h1.6zm-.1 1v-.4h-35v17.7h35v-17.3zm-26.1-32h-8.9v1.1h8.9v-1.1zm26.2 0h-25v1.2h25v-1.2zm67.6-6.8h-62.5v.5h62.5v-.5zm0 1.1h-62.5v2.1h62.5v-2.1zm0 2.8h-62.5v3.3h62.5v-3.3zm0 3.9h-62.5v2.5h62.5v-2.5zm0 3.2h-62.5v1.1h62.5v-1.1zm1.4 1.7h-65.4v1h65.5v-1zm0 1.6h.3V259c-.1.1-.1.2-.1.3v27.9h-66v-53.5H169.6zm-30.5 45.9v-3.4c0-.2-.2-.3-.2-.3l-2.1-1.1-2.1 1.1c-.3.1-.3.3-.3.3v3.5c0 .3.3.3.3.3h4.1c.3 0 .3-.4.3-.4zm31.4-20.3h14.1v41.3h-14.1v-41.3zm2.7 23.4c0 .3.4.3.4.4h3.4c.2 0 .3-.2.3-.2l1.1-2.1-1.1-2.1c-.1-.3-.3-.3-.3-.3h-3.5c-.3 0-.3.3-.3.3v4zM505 234.6c0-.1 0-.3-.1-.4 0-.2-.1-.3-.2-.4-.1-.2-.3-.4-.5-.5-.2-.1-.4-.2-.5-.3-.3-.1-.4-.1-.8-.1H193.3s-3.8.1-4.1 4.1c0 0-.2 3.7-.4 7.9 0 .6-.1 1.3-.1 2.1-.2 3.7-.4 7.7-.4 10.1 0 .8-.1 1.5-.1 1.8v.3c.1.1.1 4 4.3 4.5l14.6.5v4.7h.9v2.4h6v-.4l3.7 2.1h6.4v-.1l3.7-2.1v.4h6v-2.4h.9v-3.7l26.3 1 81.4 22 89.1-3.1c2.4-5.9 8-10.1 14.6-10.1 6.2 0 11.6 3.7 14 9.1l44.3-1.5s.8 0 1.2-.6c.2-.2.3-.4.3-.9l-1-45.9c.1 0 .1-.2.1-.5zm-44 55.7c0 8.2-6.6 14.8-14.7 14.7-2 0-3.9-.4-5.7-1.2-1.3-.6-2.6-1.3-3.7-2.2-1.1-.9-2.1-2-2.9-3.1-1.6-2.3-2.5-5.2-2.5-8.2 0-3 .9-5.9 2.5-8.2.8-1.2 1.8-2.2 2.9-3.1 1.1-.9 2.3-1.7 3.7-2.2 1.7-.7 3.7-1.2 5.7-1.2 8.1-.1 14.7 6.5 14.7 14.7zm-7.9 0c0-3.8-3.1-6.9-6.9-6.9-3.8 0-6.9 3.1-6.9 6.9 0 3.8 3 6.9 6.9 6.9 3.9-.1 6.9-3.2 6.9-6.9zM503 207H200.3v1.2H503V207z"/>
</svg>
