<svg xmlns="http://www.w3.org/2000/svg" viewBox="0 0 427 50">
    <path d="M284.15 33.57l-.5 1.6c-.1 0-.3 0-.4-.1h-.3c-.3 0-.4.1-.6.2-.1.1-.3.4-.5.9l-.2.8h1.5l-.5 1.5h-1.5l-2.51 7.82h-1.9l2.51-7.82h-1.3l.5-1.5h1.3l.4-1.3c.2-.8.6-1.3 1.1-1.7.5-.4 1.1-.5 1.8-.5h.5c.1 0 .4.1.6.1zm7.21 6.51l-1.1 3.51c-.1.2-.1.3-.1.4 0 .1 0 .2-.1.3 0 .2 0 .4.1.5.1.1.2.2.5.2h.2l-.4 1.3c-.2 0-.3.1-.5.1h-.5c-.5 0-.8-.1-1-.3s-.3-.5-.3-.8v-.2c-.4.5-.9.8-1.4 1s-1 .3-1.6.3c-.9 0-1.5-.2-2-.7-.4-.5-.6-1.1-.5-1.9.1-.9.5-1.6 1.1-2.1.6-.5 1.5-.9 2.51-1 .3 0 .7-.1 1.2-.1 1.4-.1 2.2-.6 2.3-1.3 0-.3-.1-.6-.3-.7-.2-.1-.6-.2-1.2-.2-.7 0-1.1.1-1.5.3-.3.2-.6.5-.7 1h-1.9c.3-1 .8-1.7 1.5-2.2.7-.5 1.7-.7 2.91-.7 1.1 0 2 .2 2.51.6.5.4.8 1 .7 1.7 0 .2 0 .3-.1.5-.23.19-.33.29-.33.49zm-2.5 1.6c-.4.2-1 .3-1.6.3-.7.1-1.1.1-1.3.2-.4.1-.8.3-1 .5-.2.3-.4.6-.4.9-.1.4 0 .7.3 1 .2.2.6.4 1 .4.8 0 1.4-.3 2-.8.4-.59.8-1.39 1-2.5zm12.92-3.2c.5-.6 1.1-1 1.6-1.2.5-.3 1.1-.4 1.7-.4.7 0 1.3.2 1.7.6.4.4.5.9.4 1.6 0 .2-.1.3-.1.5s-.1.3-.1.5l-2 6.21h-2l2.1-6.41c0-.1.1-.2.1-.2v-.2c0-.3 0-.5-.2-.7s-.4-.2-.8-.2c-.6 0-1.2.3-1.8.8-.6.5-1 1.2-1.2 2l-1.6 5.01h-2l2.1-6.41c0-.1.1-.2.1-.3v-.2c0-.3 0-.5-.2-.6-.2-.1-.4-.2-.8-.2-.6 0-1.2.2-1.8.7-.6.5-1 1.1-1.2 1.9l-1.7 5.11h-1.9l3.01-9.32h1.8l-.5 1.5c.5-.6 1.1-1 1.6-1.3.5-.3 1.1-.4 1.7-.4.6 0 1.1.1 1.4.4.49.2.69.61.59 1.21zm8.92-1.51h1.9l-3.01 9.22h-1.9l3.01-9.22zm1.1-3.4h1.9l-.6 2h-1.9l.6-2zm4.81 0h1.9L314.5 46.2h-1.9l4.01-12.63zm2.61 13.22l-.3-9.82h2l-.1 7.62 4.51-7.62h2.1l-7.31 11.32c-.4.6-.8 1-1.2 1.3-.4.3-.9.4-1.6.4h-.5c-.2 0-.3-.1-.5-.1l.5-1.6c.1 0 .2 0 .3.1h.3c.3 0 .5 0 .7-.1.2-.1.3-.3.5-.5l.6-1zm22.24-6.61h-2c.1-.6 0-1-.3-1.3-.3-.3-.7-.5-1.3-.5-.8 0-1.5.4-2.2 1.2-.7.8-1.1 1.8-1.2 2.91-.1.8 0 1.4.3 1.8.3.4.8.6 1.4.6.5 0 1-.2 1.5-.5.5-.4.8-.8 1.1-1.4h2c-.4 1.1-1 2-1.9 2.71s-1.9 1-3.01 1c-1.3 0-2.2-.4-2.71-1.1-.6-.7-.8-1.8-.6-3.11.2-1.6.8-3.01 1.9-4.01 1.1-1 2.3-1.6 3.81-1.6 1.1 0 2 .3 2.61.9.4.4.7 1.3.6 2.4zm7.12-3.51c1.3 0 2.2.4 2.81 1.1.6.7.9 1.7.7 3.01-.2 1.7-.9 3.11-2 4.11-1.1 1.1-2.4 1.6-3.91 1.6-1.3 0-2.2-.4-2.81-1.1s-.9-1.7-.7-3.01c.2-1.7.9-3.01 2-4.11 1.1-1.1 2.4-1.6 3.91-1.6zm1.6 3.91c.1-.7 0-1.3-.4-1.7-.3-.4-.8-.6-1.5-.6-.9 0-1.6.4-2.3 1.2-.7.8-1.1 1.8-1.3 3.01-.1.7 0 1.3.3 1.7.3.4.8.6 1.5.6.9 0 1.7-.4 2.4-1.2.7-.7 1.1-1.81 1.3-3.01zm12.12-2.1c.5-.6 1.1-1 1.6-1.2.5-.3 1.1-.4 1.7-.4.7 0 1.3.2 1.7.6.4.4.5.9.4 1.6 0 .2-.1.3-.1.5s-.1.3-.1.5l-2 6.21h-2l2.1-6.41c0-.1.1-.2.1-.2v-.2c0-.3 0-.5-.2-.7s-.4-.2-.8-.2c-.6 0-1.2.3-1.8.8-.6.5-1 1.2-1.2 2l-1.6 5.01h-2l2.1-6.41c0-.1.1-.2.1-.3v-.2c0-.3 0-.5-.2-.6-.2-.1-.4-.2-.8-.2-.6 0-1.2.2-1.8.7-.6.5-1 1.1-1.2 1.9l-1.7 5.11h-1.9l3.01-9.32h1.8l-.5 1.5c.5-.6 1.1-1 1.6-1.3.5-.3 1.1-.4 1.7-.4.6 0 1.1.1 1.4.4.39.2.59.61.59 1.21zm8.32 6.21l-1.7 5.21h-1.9l4.11-12.93h1.8l-.4 1.4c.4-.6.9-1 1.4-1.2.5-.3 1.1-.4 1.7-.4 1 0 1.8.3 2.3 1s.7 1.6.5 2.81c-.1.8-.3 1.5-.6 2.3-.3.7-.7 1.4-1.2 1.9-.5.6-1 1-1.6 1.3-.6.3-1.2.4-1.8.4s-1.2-.2-1.6-.5c-.51-.19-.81-.69-1.01-1.29zm5.91-4.11c.1-.7 0-1.3-.3-1.7-.3-.4-.7-.6-1.4-.6-.8 0-1.6.4-2.2 1.2-.7.8-1.1 1.8-1.2 3.01-.1.7 0 1.3.3 1.7.3.4.8.6 1.4.6.8 0 1.6-.4 2.2-1.2.6-.8 1-1.81 1.2-3.01zm11.93-.5l-1.1 3.51c-.1.2-.1.3-.1.4 0 .1 0 .2-.1.3 0 .2 0 .4.1.5.1.1.2.2.5.2h.2l-.4 1.3c-.2 0-.3.1-.5.1h-.5c-.5 0-.8-.1-1-.3s-.3-.5-.3-.8v-.2c-.4.5-.9.8-1.4 1-.5.2-1 .3-1.6.3-.9 0-1.5-.2-2-.7-.4-.5-.6-1.1-.5-1.9.1-.9.5-1.6 1.1-2.1.6-.5 1.5-.9 2.51-1 .3 0 .7-.1 1.2-.1 1.4-.1 2.2-.6 2.3-1.3 0-.3-.1-.6-.3-.7-.2-.1-.6-.2-1.2-.2-.7 0-1.1.1-1.5.3-.3.2-.6.5-.7 1h-1.9c.3-1 .8-1.7 1.5-2.2.7-.5 1.7-.7 2.91-.7 1.1 0 2 .2 2.51.6.5.4.8 1 .7 1.7 0 .2 0 .3-.1.5-.23.19-.33.29-.33.49zm-2.51 1.6c-.4.2-1 .3-1.6.3-.7.1-1.1.1-1.3.2-.4.1-.8.3-1 .5-.2.3-.4.6-.4.9-.1.4 0 .7.3 1 .2.2.6.4 1 .4.8 0 1.4-.3 2-.8.4-.59.7-1.39 1-2.5zm13.23-1.6l-2 6.11h-2l1.9-6.01c.1-.2.1-.3.1-.5 0-.1.1-.2.1-.4 0-.3 0-.6-.2-.8s-.5-.3-.9-.3c-.8 0-1.5.3-2.1.8-.6.5-1 1.3-1.4 2.3l-1.5 4.81h-1.9l3.01-9.32h1.8l-.5 1.4c.6-.5 1.1-1 1.7-1.2.6-.3 1.1-.4 1.7-.4.9 0 1.5.2 1.9.6.4.4.6 1 .5 1.7 0 .1 0 .3-.1.5-.01.31-.01.51-.11.71zm3.7-3.11h1.9l-3.01 9.22h-1.9l3.01-9.22zm1.11-3.4h1.9l-.6 2h-1.9l.6-2zm10.12 8.61h-6.61v.4c-.1.7 0 1.3.3 1.7.3.4.8.6 1.5.6.5 0 1-.1 1.4-.4.4-.3.7-.6 1-1.1h2c-.4 1-1 1.7-1.8 2.3-.8.6-1.8.8-2.91.8-1.2 0-2.2-.4-2.71-1.1-.6-.7-.8-1.8-.6-3.11.2-1.6.8-3.01 1.9-4.11 1-1.1 2.3-1.6 3.71-1.6 1.2 0 2.1.3 2.71 1s.8 1.7.7 2.91c0 .2-.1.4-.1.7-.29.41-.39.71-.49 1.01zm-1.71-1.4v-.3c.1-.7 0-1.2-.3-1.5-.3-.4-.7-.6-1.3-.6-.7 0-1.3.2-1.8.6-.5.4-.9 1-1.2 1.8h4.6zm11.53-.9h-1.8c0-.6-.1-1-.3-1.2-.3-.3-.7-.4-1.2-.4s-.8.1-1.1.3c-.3.2-.4.4-.5.7-.1.4.4.9 1.3 1.4.2.1.3.2.5.2 1 .5 1.6 1 1.9 1.4.3.4.4.8.3 1.3-.1.9-.5 1.6-1.3 2.2-.7.5-1.7.8-2.81.8-1.1 0-2-.3-2.61-.9-.6-.6-.8-1.4-.7-2.4v-.2h1.8c-.1.7 0 1.2.3 1.5.3.3.8.5 1.4.5.5 0 1-.1 1.3-.3.3-.2.5-.5.6-.9 0-.3 0-.5-.2-.7-.2-.2-.7-.5-1.5-1-1-.5-1.6-1-1.9-1.3-.3-.4-.3-.8-.3-1.4.1-.8.5-1.4 1.2-1.9s1.6-.7 2.61-.7c1.1 0 1.9.3 2.51.8.6.5.8 1.3.7 2.2h-.2z" fill="#1A1A18"/>
    <path fill="#E2000F" d="M10.7 23.05l.5-2.1c-.8.9-1.6 1.5-2.51 2-.9.5-1.9.7-3.01.7-2 0-3.41-.7-4.41-2.1s-1.3-3.31-1-5.71c.4-2.81 1.4-5.11 3.11-7.01 1.6-2 3.61-2.91 5.81-2.91 1 0 1.9.2 2.71.6s1.4 1 1.9 1.8L15.9.6h6.31L16.3 23.04c.01.01-5.6.01-5.6.01zm-.4-12.13c-.9 0-1.7.5-2.51 1.4-.7.9-1.2 2-1.3 3.41-.1 1 0 1.7.3 2.3.4.5.9.8 1.7.8 1 0 1.8-.4 2.61-1.3.7-.9 1.2-2 1.3-3.51.1-1 0-1.8-.4-2.3-.3-.6-.9-.8-1.7-.8zm9.52 12.13l4.41-16.53h5.81l-.6 2.4c.8-1 1.6-1.7 2.4-2.2.8-.5 1.7-.7 2.71-.7h.8l-1.7 6.31h-.5c-.5 0-.8-.1-.9-.1-1.2 0-2.1.3-2.71.9-.6.6-1.2 1.8-1.6 3.51l-1.8 6.41h-6.32zm12.92 0l4.51-16.53h6.41l-4.51 16.53h-6.41zm4.91-18.44L38.96 0h6.41l-1.2 4.61h-6.52zm8.02 18.44l-.9-16.53h6.11l-.1 10.42 5.71-10.42h6.41L52.88 23.05h-7.21zm27.05-4.81h6.21c-.7 1.7-2 3.11-3.61 4.01-1.7.9-3.71 1.4-6.01 1.4-2.81 0-4.91-.7-6.31-2.1-1.4-1.4-2-3.31-1.7-5.71.4-3.01 1.6-5.41 3.51-7.21 2-1.8 4.41-2.71 7.41-2.71 2.91 0 5.01.7 6.41 2.2 1.3 1.5 1.8 3.61 1.5 6.41 0 .3-.1.5-.1.8 0 .3-.1.5-.2.8H67.81v.3c-.1 1 0 1.8.4 2.3s1.1.8 2 .8c.6 0 1.2-.1 1.6-.3.41-.29.71-.59.91-.99zm-4.3-5.31h5.71c.1-1 0-1.7-.4-2.2s-1-.8-1.8-.8-1.5.3-2.1.8c-.71.49-1.21 1.19-1.41 2.2zm12.12 10.12l4.51-16.53h5.81l-.6 2.1c.9-.9 1.9-1.6 2.81-2 1-.4 2-.6 3.11-.6 1.7 0 2.91.5 3.81 1.4.9 1 1.2 2.2 1 3.91 0 .3-.1.6-.2 1l-.3 1.2-2.51 9.52h-6.41l2.51-9.32c.1-.2.1-.4.1-.5s0-.2.1-.3c.1-.6-.1-1-.4-1.4-.3-.3-.8-.5-1.4-.5-.8 0-1.4.3-2 .8-.5.5-.9 1.3-1.2 2.4l-2.4 8.82h-6.34zm20.74 0L107.39.61h6.31l-2.1 7.41c.7-.7 1.4-1.2 2.2-1.5.8-.3 1.6-.5 2.51-.5 2 0 3.41.7 4.41 2s1.3 3.11 1 5.41c-.4 3.11-1.4 5.51-3.11 7.41-1.7 1.9-3.71 2.81-6.01 2.81-1.3 0-2.3-.2-3.21-.7-.9-.5-1.5-1.2-1.8-2.1l-.6 2.3h-5.71v-.1zm12.23-12.23c-.9 0-1.7.4-2.4 1.3s-1.1 2-1.3 3.41c-.1 1 0 1.7.4 2.3.4.6.9.8 1.7.8.9 0 1.7-.4 2.4-1.3s1.2-2 1.3-3.41c.1-1 0-1.7-.4-2.3-.3-.6-.9-.8-1.7-.8zm8.11 14.13c.6.1 1 .1 1.2.1h.6c.6 0 1.1-.1 1.4-.4.3-.3.5-.7.6-1.3v-1.6l-1.1-15.23h6.11v10.42l5.61-10.42h6.41l-11.12 18.34c-1.1 1.8-2.2 3.11-3.31 3.81s-2.51 1.1-4.21 1.1c-.4 0-.9 0-1.4-.1-.6 0-1.2-.1-1.9-.2l1.11-4.52zm16.43 4.51l6.11-22.95h5.81l-.5 2c.8-.9 1.6-1.5 2.51-1.9s1.9-.6 2.91-.6c2 0 3.61.7 4.51 2 1 1.4 1.3 3.21 1 5.61-.4 3.01-1.4 5.41-3.11 7.31-1.7 1.9-3.71 2.81-5.91 2.81-1.1 0-2.1-.2-2.91-.7-.8-.4-1.4-1.1-1.8-1.9l-2.2 8.42h-6.41v-.1zm13.93-18.84c-1 0-1.8.4-2.51 1.3-.7.9-1.2 2.1-1.3 3.61-.1.9 0 1.7.4 2.2.4.5 1 .8 1.7.8 1 0 1.8-.4 2.51-1.3.7-.9 1.1-2.1 1.3-3.61.1-.9 0-1.7-.3-2.2-.49-.5-1-.8-1.8-.8zm8.72 12.43l4.41-16.53h5.81l-.6 2.4c.8-1 1.6-1.7 2.4-2.2s1.7-.7 2.71-.7h.8l-1.7 6.31h-.5c-.5 0-.8-.1-.9-.1-1.2 0-2.1.3-2.71.9-.6.6-1.2 1.8-1.6 3.51l-1.7 6.31h-6.41v.1zm14.23-7.42c.4-2.91 1.6-5.31 3.61-7.11 2-1.8 4.51-2.61 7.62-2.61 2.71 0 4.81.7 6.21 2.1s1.9 3.41 1.6 5.81c-.4 3.01-1.6 5.41-3.51 7.21-2 1.7-4.51 2.61-7.52 2.61-2.71 0-4.81-.7-6.21-2.2-1.5-1.4-2.1-3.4-1.8-5.81zm10.42-5.31c-1 0-1.9.5-2.61 1.4-.7 1-1.1 2.3-1.4 4.01-.1 1.1 0 1.9.3 2.4s.9.8 1.8.8c1 0 1.8-.5 2.51-1.4.7-1 1.1-2.3 1.4-3.91.1-1.1 0-2-.3-2.51s-.9-.79-1.7-.79zm9.52 12.73l3.51-12.83h-2.3l1-3.71h2.3c.6-2.51 1.5-4.21 2.61-5.11 1.1-1 2.81-1.4 5.21-1.4.5 0 1 0 1.5.1.5 0 1 .1 1.4.2L209 4.21h-1c-.7 0-1.2.2-1.6.6-.4.4-.6 1-.8 1.9h2.71l-1 3.71h-2.81l-3.51 12.83h-6.11v-.2zm23.45-4.81h6.21c-.7 1.7-2 3.11-3.61 4.01-1.7.9-3.71 1.4-6.01 1.4-2.81 0-4.91-.7-6.31-2.1-1.4-1.4-2-3.31-1.7-5.71.4-3.01 1.6-5.41 3.51-7.21 2-1.8 4.41-2.71 7.41-2.71 2.91 0 5.01.7 6.41 2.2 1.3 1.5 1.8 3.61 1.5 6.41 0 .3-.1.5-.1.8 0 .3-.1.5-.2.8h-12.02v.3c-.1 1 0 1.8.4 2.3.4.5 1.1.8 2 .8.6 0 1.2-.1 1.6-.3.3-.29.7-.59.91-.99zm-4.41-5.31h5.71c.1-1 0-1.7-.4-2.2-.4-.5-1-.8-1.8-.8s-1.5.3-2.1.8c-.71.49-1.11 1.19-1.41 2.2zm12.92 4.5h6.11c-.1.7 0 1.3.4 1.7.3.4.8.6 1.5.6.6 0 1.1-.1 1.5-.4.4-.3.6-.6.7-1 0-.4-.1-.7-.3-.9-.3-.3-.7-.5-1.4-.8l-.2-.1c-4.31-1.6-6.31-3.41-6.01-5.51.2-1.7 1.1-3.01 2.51-3.91 1.5-.9 3.51-1.3 6.01-1.3 2.4 0 4.31.4 5.51 1.3 1.2.9 1.8 2.2 1.6 3.91h-5.81v-.1c.1-.5-.1-.9-.4-1.2-.3-.3-.8-.4-1.5-.4-.5 0-1 .1-1.3.3-.3.2-.5.5-.6.9 0 .4.1.7.4.9.3.3.9.5 1.9.8.3.1.7.2 1.2.4 1.4.4 2.4.8 3.01 1.2.7.4 1.1.9 1.5 1.6.3.7.4 1.4.3 2.1-.2 1.9-1.1 3.31-2.71 4.41-1.5 1-3.61 1.6-6.21 1.6-2.71 0-4.71-.5-6.01-1.6-1.3-1-1.9-2.51-1.7-4.41v-.09zm18.44 0h6.11c-.1.7 0 1.3.4 1.7.3.4.8.6 1.5.6.6 0 1.1-.1 1.5-.4.4-.3.6-.6.7-1 0-.4-.1-.7-.3-.9-.3-.3-.7-.5-1.4-.8l-.2-.1c-4.31-1.6-6.31-3.41-6.01-5.51.2-1.7 1.1-3.01 2.51-3.91 1.5-.9 3.51-1.3 6.01-1.3 2.4 0 4.31.4 5.51 1.3s1.8 2.2 1.6 3.91h-5.81v-.1c.1-.5-.1-.9-.4-1.2-.3-.3-.8-.4-1.5-.4-.5 0-1 .1-1.3.3-.3.2-.5.5-.6.9 0 .4.1.7.4.9.3.3.9.5 1.9.8.3.1.7.2 1.2.4 1.4.4 2.4.8 3.01 1.2.7.4 1.1.9 1.5 1.6.3.7.4 1.4.3 2.1-.2 1.9-1.1 3.31-2.71 4.41-1.5 1-3.61 1.6-6.21 1.6-2.71 0-4.71-.5-6.01-1.6-1.3-1-1.9-2.51-1.7-4.41v-.09zM263 23.05l4.51-16.53h6.41l-4.51 16.53H263zm4.91-18.44l1.3-4.61h6.41l-1.2 4.61h-6.51zm6.02 11.02c.4-2.91 1.6-5.31 3.61-7.11s4.51-2.61 7.62-2.61c2.71 0 4.81.7 6.21 2.1s1.9 3.41 1.6 5.81c-.4 3.01-1.6 5.41-3.51 7.21-2 1.7-4.51 2.61-7.52 2.61-2.71 0-4.81-.7-6.21-2.2-1.5-1.4-2.1-3.4-1.8-5.81zm10.52-5.31c-1 0-1.9.5-2.61 1.4-.7 1-1.1 2.3-1.4 4.01-.1 1.1 0 1.9.3 2.4s.9.8 1.8.8c1 0 1.8-.5 2.51-1.4.7-1 1.1-2.3 1.4-3.91.1-1.1 0-2-.3-2.51s-.9-.79-1.7-.79zm8.61 12.73l4.51-16.53h5.81l-.6 2.2c.9-.9 1.9-1.6 2.81-2 1-.4 2-.6 3.11-.6 1.7 0 2.91.5 3.81 1.4.9 1 1.2 2.2 1 3.91 0 .3-.1.6-.2 1l-.3 1.2-2.51 9.52h-6.41l2.51-9.32c.1-.2.1-.4.1-.5 0-.1 0-.2.1-.3.1-.6-.1-1-.4-1.4-.3-.3-.8-.5-1.4-.5-.8 0-1.4.3-2 .8-.5.5-.9 1.3-1.2 2.4l-2.4 8.82h-6.31v-.1zm31.87 0v-1.5c-1 .7-2 1.2-3.01 1.6-1 .3-2 .5-3.01.5-1.6 0-2.91-.4-3.81-1.3-.9-.8-1.2-2-1.1-3.31.2-1.9 1-3.31 2.4-4.21 1.3-.9 3.51-1.6 6.51-1.9.2 0 .5 0 .9-.1 2.1-.2 3.31-.7 3.41-1.5.1-.4-.1-.8-.4-1-.3-.2-.8-.4-1.5-.4s-1.3.1-1.7.4c-.4.3-.7.7-.8 1.3h-6.11c.5-1.9 1.5-3.31 3.11-4.21s3.71-1.4 6.51-1.4c2.51 0 4.41.4 5.61 1.3s1.7 2.2 1.5 3.91c0 .3-.1.6-.2 1.1-.1.5-.2.9-.4 1.4l-1.7 6.01c-.1.4-.2.6-.2.9-.1.2-.1.4-.1.5v.9c.1.3.2.5.3.7l-.1.4h-6.11v-.09zm1.2-7.42c-.7.2-1.6.4-2.71.7-1.8.4-2.71 1-2.81 1.9-.1.4.1.7.3 1 .3.2.7.4 1.2.4 1 0 1.9-.3 2.61-1 .81-.69 1.21-1.7 1.41-3zm7.72 7.42L339.76.61h6.31l-5.81 22.44h-6.41zm10.42-5.62h6.11c-.1.7 0 1.3.4 1.7.3.4.8.6 1.5.6.6 0 1.1-.1 1.5-.4.4-.3.6-.6.7-1 0-.4-.1-.7-.3-.9-.3-.3-.7-.5-1.4-.8l-.2-.1c-4.31-1.6-6.31-3.41-6.01-5.51.2-1.7 1.1-3.01 2.51-3.91 1.5-.9 3.51-1.3 6.01-1.3 2.4 0 4.31.4 5.51 1.3s1.8 2.2 1.6 3.91h-5.81v-.1c.1-.5-.1-.9-.4-1.2-.3-.3-.8-.4-1.5-.4-.5 0-1 .1-1.3.3-.3.2-.5.5-.6.9 0 .4.1.7.4.9.3.3.9.5 1.9.8.3.1.7.2 1.2.4 1.4.4 2.4.8 3.01 1.2.7.4 1.1.9 1.5 1.6.3.7.4 1.4.3 2.1-.2 1.9-1.1 3.31-2.71 4.41-1.5 1-3.61 1.6-6.21 1.6-2.71 0-4.71-.5-6.01-1.6-1.3-1-1.9-2.51-1.7-4.41v-.09z"/>
    <path fill="#fff" d="M362.2 23.05l1.8-6.61h6.61l-1.9 6.61h-6.51zm9.82 0l4.51-16.53h5.81l-.5 2.1c.9-.9 1.9-1.6 2.81-2 1-.4 2-.6 3.11-.6 1.7 0 2.91.5 3.81 1.4.9 1 1.2 2.2 1 3.91 0 .3-.1.6-.2 1l-.3 1.2-2.51 9.52h-6.41l2.51-9.32c.1-.2.1-.4.1-.5s0-.2.1-.3c.1-.6-.1-1-.4-1.4-.3-.3-.8-.5-1.4-.5-.8 0-1.4.3-2 .8-.5.5-.9 1.3-1.2 2.4l-2.4 8.82h-6.44zm33.47-4.81h6.21c-.7 1.7-2 3.11-3.61 4.01-1.7.9-3.71 1.4-6.01 1.4-2.81 0-4.91-.7-6.31-2.1s-2-3.31-1.7-5.71c.4-3.01 1.6-5.41 3.51-7.21 2-1.8 4.41-2.71 7.41-2.71 2.91 0 5.01.7 6.41 2.2 1.3 1.5 1.8 3.61 1.5 6.41 0 .3-.1.5-.1.8 0 .3-.1.5-.2.8h-12.02v.3c-.1 1 0 1.8.4 2.3.4.5 1.1.8 2 .8.6 0 1.2-.1 1.6-.3.41-.29.71-.59.91-.99zm-4.31-5.31h5.71c.1-1 0-1.7-.4-2.2-.4-.5-1-.8-1.8-.8s-1.5.3-2.1.8c-.71.49-1.21 1.19-1.41 2.2zm21.44 10.12c-.6.1-1.3.1-1.9.2-.6 0-1.2.1-1.7.1-1.5 0-2.71-.3-3.41-1-.8-.7-1.1-1.6-.9-2.81 0-.2.1-.5.1-.8.1-.3.2-.6.3-1l2-7.41h-2.3l1-3.71h2.3l1.4-5.11h6.21l-1.4 5.11h2.51l-1 3.71h-2.51l-1.7 6.41v.5c-.1.4 0 .8.3 1 .3.2.7.3 1.3.3h.8l-1.4 4.51zM125.83 46.19l3.31-12.53h4.81l-1.2 4.31 5.61-4.31h6.51l-6.41 4.51 3.61 8.02h-6.01l-2-5.11-2.61 1.7-.9 3.41h-4.72zm26.75-4.51c-.5.2-1.3.4-2.4.4-.3 0-.6 0-.7.1-.7.1-1.1.2-1.4.3-.3.1-.4.3-.5.6-.1.3 0 .5.2.7.2.2.6.2 1.1.2 1 0 1.8-.2 2.4-.6.7-.4 1.1-.9 1.3-1.5-.1 0 0-.1 0-.2 0 .1 0 .1 0 0zm-.9 3.21c-.7.6-1.5 1-2.3 1.2-.8.3-1.8.4-3.01.4-1.6 0-2.71-.3-3.41-.8s-.8-1.3-.6-2.4c.1-.3.2-.7.4-1 .2-.3.4-.6.6-.8.4-.4 1-.7 1.6-.9.6-.2 1.7-.4 3.31-.5.5 0 1.2-.1 2-.1 1.7-.1 2.51-.3 2.61-.7.1-.3 0-.5-.3-.6-.3-.2-.7-.2-1.3-.2-.8 0-1.3.1-1.7.2-.4.1-.6.4-.8.7h-4.51c.4-1.2 1.2-2 2.3-2.51 1.1-.5 2.91-.8 5.21-.8 1.3 0 2.3.1 3.11.3s1.4.4 1.8.8c.4.4.6.8.7 1.4.1.5 0 1.3-.3 2.3l-1 3.71c-.1.4-.1.6-.1.8 0 .2.1.3.2.5l-.1.2h-4.51v-.6c0-.1.1-.3.1-.6zm1.1-9.72l.7-2.51h3.41l-.7 2.51h-3.41zm-4.5 0l.7-2.51h3.41l-.7 2.51h-3.41zm9.81 7.92h5.31c-.1.3 0 .6.2.7.2.1.6.2 1.2.2.5 0 .9-.1 1.2-.2.3-.1.4-.3.5-.5.1-.4-.5-.6-1.8-.7-.3 0-.4 0-.6-.1-2.1-.2-3.41-.5-4.11-.8-.4-.2-.6-.5-.8-.9-.1-.4-.1-.9 0-1.5.3-1.1 1-1.9 2.2-2.51 1.2-.5 2.91-.8 5.11-.8 2.1 0 3.61.3 4.51.8.9.5 1.2 1.3 1 2.51H167c.1-.3 0-.6-.3-.7-.2-.1-.7-.2-1.3-.2-.5 0-.9.1-1.2.2-.3.1-.4.3-.5.5-.1.4.4.6 1.5.7.2 0 .4 0 .5.1h.4c2.2.2 3.51.4 3.81.5.7.3 1.1.6 1.3 1 .2.4.2.9 0 1.6-.3 1.2-1.1 2.1-2.4 2.71-1.2.6-3.11.8-5.61.8-2.2 0-3.81-.3-4.61-.8-.5-.51-.8-1.41-.5-2.61zm27.56-6.12c.9.5 1.2 1.3 1 2.51h-5.01c.1-.3 0-.6-.3-.7-.2-.1-.7-.2-1.3-.2-.5 0-.9.1-1.2.2-.3.1-.4.3-.5.5-.1.4.4.6 1.5.7.2 0 .4 0 .5.1h.4c2.2.2 3.51.4 3.81.5.7.3 1.1.6 1.3 1s.2.9 0 1.6c-.3 1.2-1.1 2.1-2.4 2.71-1.2.6-3.11.8-5.61.8-2.2 0-3.81-.3-4.61-.8-.9-.5-1.2-1.4-.9-2.61h5.31c-.1.3 0 .6.2.7.2.1.6.2 1.2.2.5 0 .9-.1 1.2-.2.3-.1.4-.3.5-.5.1-.4-.5-.6-1.8-.7-.3 0-.4 0-.6-.1-2.1-.2-3.41-.5-4.11-.8-.4-.2-.6-.5-.8-.9-.1-.4-.1-.9 0-1.5.3-1.1 1-1.9 2.2-2.51 1.2-.5 2.91-.8 5.11-.8 2.5 0 4.01.3 4.91.8zm7.01 4.41c-.2.6-.1 1.2.2 1.6.3.4.8.6 1.4.6.7 0 1.3-.2 1.8-.6.5-.4.8-.9 1-1.6.2-.7.1-1.2-.2-1.6-.3-.4-.8-.6-1.5-.6s-1.3.2-1.8.6c-.4.4-.7.9-.9 1.6zm-5.61 4.81l3.41-12.63h4.31l-1 3.71c.6-.3 1.2-.6 1.9-.8.6-.2 1.3-.3 2-.3 1.6 0 2.81.5 3.61 1.4.7.9.9 2.2.5 3.71-.4 1.5-1.2 2.81-2.4 3.71-1.2.9-2.61 1.4-4.21 1.4-.8 0-1.4-.1-2-.3s-1.1-.5-1.5-.9l-.3 1h-4.32zm20.24-4.81c-.2.7-.1 1.2.2 1.6.3.4.8.6 1.5.6s1.3-.2 1.8-.6c.5-.4.9-.9 1-1.6.2-.7.1-1.2-.2-1.6-.3-.4-.8-.6-1.5-.6s-1.3.2-1.8.6c-.5.4-.8.9-1 1.6zm-4.61 0c.4-1.6 1.4-2.91 2.81-3.81 1.4-.9 3.21-1.4 5.41-1.4s3.71.4 4.71 1.4c.9.9 1.2 2.2.7 3.81-.4 1.6-1.4 2.91-2.81 3.81-1.4.9-3.21 1.4-5.41 1.4s-3.71-.4-4.71-1.4c-.8-.9-1.1-2.2-.7-3.81zm14.13 4.81l3.41-12.63h4.31l-1 3.91c.7-.4 1.4-.7 2-.9.7-.2 1.4-.3 2.1-.3 1.4 0 2.4.4 2.81 1.1.5.7.5 1.9.1 3.41l-1.4 5.41h-4.31l1.2-4.61c.2-.7.2-1.2 0-1.5-.2-.3-.5-.4-1.1-.4s-1.2.2-1.6.5c-.4.3-.7.7-.9 1.3l-1.3 4.71h-4.32zm14.53 0l2.61-9.72h4.31l-.1.7c.4-.3.9-.6 1.4-.7.5-.2 1-.2 1.6-.2 1.1 0 1.9.3 2.2.9.4.6.4 1.6 0 2.91l-.2.8h-3.81v-.1c.1-.5.1-.9 0-1.1-.1-.2-.3-.4-.7-.4-.4 0-.7.1-.9.4-.2.3-.4.7-.6 1.4l-1.3 5.01h-4.51v.1zm17.24-5.91h5.11c.1-.5 0-.9-.4-1.2-.3-.3-.9-.4-1.6-.4-.8 0-1.4.1-2 .4-.51.3-.91.7-1.11 1.2zm8.71 3.01c-.6 1.1-1.6 1.9-2.91 2.4-1.3.6-3.01.8-5.01.8-2.2 0-3.81-.4-4.71-1.4-1-.9-1.2-2.2-.8-3.81.4-1.6 1.4-2.91 2.81-3.81 1.4-.9 3.31-1.4 5.51-1.4 2.3 0 4.01.5 4.91 1.5.9 1 1.1 2.51.6 4.51v.2h-9.42c-.1.5 0 .9.3 1.2.4.3.9.4 1.7.4.5 0 1-.1 1.4-.2.4-.1.7-.3.9-.6h4.71v.21zm.9 2.9l2.61-9.72h4.31l-.1.7c.4-.3.9-.6 1.4-.7.5-.2 1-.2 1.6-.2 1.1 0 1.9.3 2.2.9.4.6.4 1.6 0 2.91l-.2.8h-3.81v-.1c.1-.5.1-.9 0-1.1-.1-.2-.3-.4-.7-.4-.4 0-.7.1-.9.4-.2.3-.4.7-.6 1.4l-1.3 5.01h-4.51v.1z"/>
</svg>
