<svg  xmlns="http://www.w3.org/2000/svg" viewBox="0 0 512 512">
    <style>
        .st0{fill:#dadada}.st1{fill:#c6c6c6}.st2{fill:#878787}
    </style>
    <path class="st0" d="M227.2 240.5zM232 241.8c-.1-.1-.2-.1-.3-.2.2.2.2.2.3.2zM235 244zM233.1 242.7c-.1-.1-.2-.2-.3-.2.1.1.2.1.3.2zM232.8 242.4c-.1-.1-.2-.2-.3-.2.1.1.2.1.3.2zM234.6 243.8c-.1 0-.1 0 0 0-.1 0-.1 0 0 0zM234.3 243.5c-.1 0-.1 0 0 0-.1 0-.1 0 0 0zM233.8 243.3zM232.4 242.1zM229.8 240.8c-.1 0-.2 0-.3-.1.1 0 .2 0 .3.1zM229 240.6h-.3c.1-.1.2 0 .3 0zM228.4 240.5h-.3.3zM230.9 241.1c-.1-.1-.3-.1-.4-.2.2.2.3.2.4.2zM231.7 241.6c-.1-.1-.2-.2-.4-.2.1.1.2.1.4.2zM231.3 241.4c-.1-.1-.2-.1-.3-.2.1 0 .2.1.3.2zM235.7 244.3zM238.6 243.8c-.1 0-.1.1-.2.1 0 0 .1 0 .2-.1zM238.1 244c-.1 0-.1.1-.2.1.1-.1.1-.1.2-.1zM237.8 244.1c-.1 0-.1 0-.2.1.1 0 .1 0 .2-.1zM239.3 243.3c-.1 0-.1.1-.2.1l.2-.1zM228 266.9c.3.5.5 1 .7 1.6-.2-.6-.4-1.2-.7-1.6zM235.3 244.1zM237.3 244.3zM236.2 244.4c-.1 0-.1 0 0 0zM236.5 244.4zM236.9 244.4zM238.9 243.5c-.1 0-.1.1-.2.1.1 0 .2 0 .2-.1zM314.5 255.5c0 .1 0 .1 0 0 0 .1 0 .1 0 0zM314.1 255.9c0 .1 0 0 0 0zM316.9 252.5zM312.4 256.8zM312.7 256.8zM313.1 256.6c-.1.1 0 0 0 0zM313.4 256.4c0 .1-.1.1 0 0-.1.1 0 .1 0 0zM316.3 253.3c0 .1-.1.1-.1.2 0-.1.1-.1.1-.2zM316.6 252.9c0 .1 0 0 0 0zM316 253.9s-.1 0 0 0c-.1 0 0 0 0 0zM315.6 254.3c-.1.1-.1.1 0 0zM315.3 254.8zM314.9 255.2c-.1 0-.1 0 0 0-.1 0-.1 0 0 0zM313.8 256.2zM311.5 256.4c-.1 0-.1-.1 0 0-.1-.1-.1 0 0 0zM311.2 256.1c-.1 0 0 0 0 0zM311 255.6zM311.7 256.6zM310.7 255.1c0-.1 0-.1-.1-.2.1 0 .1.1.1.2zM310.5 254.4c0-.1 0-.1-.1-.2.1.1.1.2.1.2zM312.1 256.8c-.1 0-.1 0 0 0-.1 0-.1 0 0 0zM226.4 241.1c0 .1 0 .1 0 0 0 .1 0 .1 0 0zM339.5 210.3c.3.1.5.3.9.4-.4-.2-.7-.3-.9-.4zM317.5 251.5zM317.3 251.9c0 .1-.1.1-.1.2 0-.1.1-.2.1-.2zM227.6 240.5h.2-.2zM233.5 243zM226.4 241c.1 0 .1 0 0 0 .1 0 .1 0 0 0zM226.2 242zM226.3 242.4v0zM226.2 241.6zM227 243.9c0 .1.1.1.1.2 0-.1 0-.1-.1-.2zM227.4 244.5c0 .1.1.1.1.2 0-.1-.1-.2-.1-.2zM226.7 243.4c0 .1 0 0 0 0zM226.4 242.8c0 .1 0 .1 0 0zM236 258.9s-.1 0 0 0c-.1 0-.1 0 0 0zM237.8 259.4zM236.9 259.1zM226.8 240.7zM385.5 208.2c-.1 0-.1 0 0 0zM389.9 251.8h-.3.3zM385.7 243.2c.5-2.8 1-5.2-.1-8 1.2 2.6.6 5.2.1 8zM384.5 208.2c-.2 0-.4.1-.6.1.2 0 .4 0 .6-.1zM385.4 246v0zM390.3 251.7h.3-.3zM384.6 208.2h.4-.4zM382.7 208.5s.1 0 0 0zM383.4 208.5h-.2.2zM354.5 268.4c-.1-.2-.2-.4-.4-.6.2.1.3.3.4.6zM398.4 225.3c.4.3.9.4 1.3.7-.4-.3-.8-.5-1.3-.7zM394.5 222.5c.3.2.4.3.7.4-.2-.1-.4-.2-.7-.4zM363.1 265.8c-1-2-1.7-4.5-3.8-5.6-2.1-1-4.7.1-5.4 2.2-.7 1.9-.2 4.7 1.7 5.8 1.2.7 2.7.3 4 .2 1.7-.1 3.4 0 5 0-.6-.8-1.1-1.7-1.5-2.6zM397.3 242.1c.5 1.2 1.2 2.4 1.8 3.6-.5-1.1-1.3-2.4-1.8-3.6zM258.1 242.7c-.5-.3-1-.6-1.5-1 .6.4 1.1.8 1.5 1zM256.6 241.8c-.5-.4-1.1-.7-1.6-1.1.6.4 1.1.7 1.6 1.1zM259 220.9zM195.3 270.3c.8 0 2.2-.7 2.9-.1 1 1-.7 1.6-1.4 1.8.8.8 2.7 1.5 3.8.8.6-.4.5-1.2.8-1.9.3-.6.8-1.3 1.1-1.9.8-1.3 2.1-.7 3.4-.5 2.1.3 4.3-.1 6.4-.1-1-1-2.6-1.4-4.1-1.3-1.7.2-3.4 1.2-5.2.7-.7-.2-1.3-.7-2-1-.9-.3-2-.2-2.9-.1-1.7.2-3.5.6-4.9 1.6.6.8 1.4 1.3 2.1 2z"/>
    <path class="st0" d="M239.9 207.8c2.8 2.5 1.2 8.1-2.4 8.9-2.5.6-4.5-1.5-6.8-1.8-2.4-.3-5 .8-6.4 2.8 1.7 1.1 3.3 2.7 3.8 4.8.5 1.9.1 4.1 1 6 .9 1.8 2.8 2.4 4.6 3 1.9.6 3.7 1.5 5.1 2.9 2 2.1 3.5 6.2 1.5 8.8-1.2 1.6-3.4 2.1-5.3 1.6-2-.5-3.2-2.1-4.9-3-1-.6-3.3-1.1-3.2.7 0 1.6 1.6 2.9 2.7 3.8 3 2.3 7 3.5 9.3 6.6 1 1.4 1.7 3.4 1.5 5.2-.3 2.3-2.3 2.7-4.2 2.1-1.9-.6-3.9-2.1-5.9-1.7-1.9.4-2.6 2.4-3.2 4-.3.9-.6 1.9-.2 2.9.4.8 1.1 1.5 1.7 2.2 1.5 2 3.6 1.3 5.8 1.3 2.4-.1 4.9.3 7.2.1 2.2-.2 3.3-1.6 3.6-3.8.4-2.3.4-4.6.9-6.9.5-2 1.3-4 2.4-5.8 2.2-3.3 5.8-4.8 9.3-2.3 1.8 1.3 3.3 3 4.7 4.6 1.4 1.6 2.3 3.1 3 5.1.7 2 2 2.9 3.9 3.9 1.9.9 3.9 1.8 6 2.1 2 .3 4.3-.1 5.5-1.9 1.1-1.6 1.1-3.7 2.2-5.4 1.1-1.7 2.8-3 3.4-5 .6-2.1.2-4.3.3-6.4.2-2.1.8-4.2 2.6-5.5 1.5-1.1 3.4-1.5 4.9-2.6 1.6-1.2 3-2.7 5.1-2.6 1.9.1 3.5 1.4 4.1 3.2 1.2 3.8-2.2 7.5-1.1 11.3.6 2.1 2.2 3.8 3.5 5.4 1.5 1.9 2.9 3.9 4 6 1 1.9 1.8 4.2 1 6.3 2.3 0 4.6.3 6.9 0 .8-.1 1.7-.4 2.5-.3 1 .2 1.1.9 1.7 1.6 2.6 2.9 6.8-1.5 7.7-3.9 1-2.8-.4-6.3-3.7-6.4-1.6 0-3.7.9-5-.6-1.1-1.2-.5-3 .2-4.3 2-3.7 6-5.8 9.7-7.6-.7 0-1.3-.6-2-.7-.7-.1-1.4.2-2.1.4-1.6.5-3.1 1-4.7 1.3-1.5.3-2.9.5-3.9 1.7-.9 1-1.4 2.4-2.1 3.6-1 1.8-2.5 4.5-4.9 4.1-2.4-.4-2.6-3.2-2.7-5.2-.1-3.4.9-6.8 2-10 1.2-3.3 2.3-6.6 1.5-10.1-.3-1.5-.7-2.9-.5-4.4.3-1.6 1.2-2.9 2.1-4.2 1.8-2.5 3.8-4.9 4.9-7.9 1-2.6 1.4-5.7 3.8-7.4 2.4-1.7 5.9-.8 7.4 1.7 2.7-3.3 7-1.1 10.2.1 4.6 1.7 9.5 1.7 14.1 3.3 3.7 1.3 7.1 3.9 8.8 7.5 2 4.4 1.1 9.5-.4 14-.8 2.3-1.8 4.4-.7 6.8.5 1 .9 1.9 1.1 3 .2 1.2.3 2.4.6 3.5.7 2.1 2.2 3.7 3.4 5.5 1.5 2 2.8 4.1 4.2 6.2 1.3 1.9 2.7 3.9 3.6 6.1.7 1.8 1.6 3.2 3.8 2.9 1.9-.2 2.3-1.8 2.2-3.5-.1-2.4-.4-4.8-.8-7.2-.5-2.5-1.4-4.8-2.2-7.2-.8-2.4-1.2-4.9-1.8-7.4-.5-2.2-1.4-4.3-2.6-6.2-1.2-1.8-2.6-3.6-3.5-5.6-1.2-2.8-1.9-7.7 1.3-9.6 3.3-1.9 6.5 2.7 8.3 4.8 2.8 3.2 6.2 6.7 6.3 11.3 0 3.4-3.2 9.6.4 12.1 2.4 1.7 6.1-.1 8.3-1.3 1.3-.7 2.8-1.8 2.8-3.5 0-1.9-1.7-3.3-2.1-5.1-.5-2.1.6-4 1.9-5.6 1.2-1.6 3.2-3.2 3.2-5.4 0-2.1-2-3.3-3.6-4.1-2-1.1-3.9-2.3-5.8-3.4-1.7-1-3.6-2-4.7-3.7-1.2-1.9-.4-3.9-.4-6 0-2.2-1-3-3.1-3.2-2-.1-2.4-1.1-3.7-2.4-1.7-1.6-4-.7-6-.7.1 1-.2 2.2-1.1 2.7-1.1.7-2.5 0-3.7-.1-1.4-.2-2.8.3-4.3.3s-2.9-.4-4.2-1c-1.3-.6-2.5-1.5-3.9-1.9-1.4-.5-2.9-.3-4.4-.2-3.2.2-6.4.1-9.6.1-3.2 0-6.5.1-9.7 0-2.9-.1-6.1-.8-9-.2-2.5.5-4.8 3.1-7.4 2.4-2.4-.6-4.3-3.3-7.1-2.4-2.8 1-2 4.1-3.5 6-1.6 2-4.9 2.4-7.2 1.5-.7 2.2-.8 4.5-1.7 6.6-.9 1.9-2.4 3.5-4.2 4.4-1.9 1-4 1.3-5.9 2.3-1.9 1.1-3.1 2.9-3.9 4.9-1.1 2.4-2.1 6.3-5.5 6.1-2-.1-3.6-1.8-4.4-3.6-.9-2.2-.3-4.6.5-6.7 1-2.6 2-5.3 3-7.9.9-2.6 2-5.2 2-8-3.1.8-6.9-1.8-6.6-5.2-1.5.7-2.5 2.5-2.4 4.1.1.9.6 1.7.7 2.6.2 1-.3 1.8-.8 2.6-1.1 2.1-.5 3.8.7 5.7 1 1.7 1.8 3.4 1.6 5.5-.2 2.2-1.1 4.3-.7 6.6.3 2 1.4 3.9 1.3 6-.3 3.6-3.7 6.1-7.1 6.3-4.1.2-7.7-2.3-10.7-4.6-2-1.5-5.7-4.4-3.7-7.3 1.1-1.4 3-1.6 4.5-2.4 1.7-.8 2.7-2.3 3.7-3.9.4-.7 1-1.5 1-2.4 0-1-.9-1.7-1.4-2.6-.9-1.9-.1-4.1.1-6.1.2-2.6-.7-5-1.8-7.3-.8-1.7-1.9-3.3-3.9-3.8-2.4-.5-4.9.1-7.3.3-2.8.1-5.6 0-8.4 0 1.4 1.3 2.6 1.6 3.5 2.3zm5.5 24.1c-1.9 0-2.6-2-3.3-3.4-1-2.1-2.1-4.2-2.7-6.5-.4-1.7-.6-3.8 1-4.9 1.6-1.1 3.7-.3 4.7 1.1 1.2 1.6 1.2 3.7 2.7 5.1 1.2 1.1 2.9 1.8 3.4 3.5 1 3.3-3.2 5.1-5.8 5.1z"/>
    <path class="st0" d="M322.9 271.3c-.1 0-.2-.1-.3-.1.8 0 1.6.4 2.4.7-.7-.3-1.4-.6-2.1-.6zM307.7 206zM374.2 264.3l.2.2-.2-.2zM373.1 262.8c.2.3.4.5.6.8-.2-.2-.3-.4-.6-.8zM374.7 264.9c.3.4.5.9.7 1.4-.2-.5-.5-.9-.7-1.4z"/>
    <path class="st1" d="M363.3 245c0-1.7-1.5-2.8-1.8-4.4-.4-1.9.6-3.7 1.3-5.4 1.3-3.6 2-7.5 1.2-11.3-.7-3.4-2.5-6.5-5.5-8.3-3.1-1.9-6.8-2.4-10.3-3-3.3-.6-6.5-1.4-9.6-2.7-1.7-.7-4.7-2.2-6.3-.5-1 1.1-.7 2.5-.1 3.7.7 1.3 1.5 3 2.8 3.8 2.8 1.9 5.8-1.2 8.3-2.1 3.9-1.4 8.2 1 11.5 3 1.3.8 2.9 1.7 3.2 3.4.3 1.9-1.2 3.3-1.8 4.9 1 .2 2 .6 2.5 1.6.5 1.1-.3 2.3-.1 3.5.1 1.1 1 1.9 1.4 2.9.5 1.2.4 2.5-.2 3.7-1 2-2.9 3.8-.9 5.8 1.4 1.5 3.6 2.1 4.5 4.1 0-1 0-1.9-.1-2.7z"/>
    <path class="st2" d="M341.2 253.2c-.2 0-.3.1-.4.2.2-.1.3-.2.4-.2z"/>
    <path class="st2" d="M374.7 264.9c-.4-.9-1.2-1.6-1.7-2.3-.7-.9-1.2-1.9-1.8-2.9-1.2-2-2.4-4-3.7-5.9-1.2-1.9-2.5-3.8-4.1-5.5-1.5-1.6-3.5-2.6-5.1-4.2-1.4-1.4-2.2-3.3-1-5.1.8-1.3 2.5-2.2 2.2-3.9-.1-.9-.8-1.5-1.2-2.3-.4-1-.2-2-.3-3-.1-1.7-1.1-3-2.8-3.2.5-1.6 2.2-2.8 2.1-4.6 0-1.7-1.5-2.7-2.9-3.4-3.5-1.9-7.7-4-11.7-2.7-2.8.9-6.3 3.9-9.1 1.3-2.1-2-2.3-5.3-4.4-7.3-2.2-2.1-5.4-.9-6.9 1.4-1.8 2.6-2.2 5.9-3.8 8.6-2 3.5-5.6 6.1-5.3 10.6.2 2.3.9 4.4.6 6.8-.2 2.1-1 4.2-1.7 6.2-.8 2.4-1.7 4.8-2 7.3-.2 1.9-.4 4.4 1 6 3.2 3.7 7.5-5.3 8.7-7.3-3.7 0-2.5-4.6-1.4-6.6 1.1-2.1 2.9-3.7 3.7-6 .8-2.3.4-4.6.2-7-.4-3.9.2-8.1 4.4-9.7 4.1-1.5 8.7.3 12.1 2.5 3 1.9 6.8 4.8 6.8 8.7 0 3.9-4.1 5.5-5.6 8.6-1 2-.4 4.4-1.4 6.4-.9 1.8-2.7 1.9-4.5 2-2.2.1-4 1-5.8 2.3-1.9 1.4-3.8 3-4.9 5-.9 1.7-.9 3.7 1.3 4.2 2 .5 4.2-.5 6.1.7 4.3 2.6 0 8.4-2.5 10.6 1.4 0 2.6 0 3.9-.6 1.1-.5 2.1-1.2 3.3-1.7 1.7-.7 3.4-1.6 3.7-3.5.7-3.6-2.9-8 .4-11 1.5-1.4 4-1.6 5.6-.4 1.7 1.2 2.1 3.3 3 5.1.9 1.9 2.5 3.6 2.9 5.8.4 2.4-.8 4.7-2.5 6.3 1.2 0 2.6.8 3.7.2.8-.4.4-.9.6-1.6.4-1 1.2-.5 2.1-.5 0-.7-.6-1.2-.9-1.8-.4-.8-.7-1.7-.8-2.6-.1-1.4.4-2.8 1.5-3.7 2.3-1.9 5.5-.5 7.1 1.5 1 1.2 1.6 2.6 2.1 4 .3 1.1.6 2.4 1.7 2.9.7.3 1.6.1 2.4 0 .8-.1 1.6 0 2.4 0h5.6c-.1-1.6-.6-3.2-1.4-4.7z"/>
    <path class="st2" d="M352.4 271.3c-1.3.3-2.7.7-3.9 1.4.7-.4 1.5-.8 2.4-1 .5-.1 1.3 0 1.6-.5 0 0-.1 0-.1.1zM341.9 253.1c-.2 0-.3 0-.4.1.1-.1.3-.1.4-.1zM340.6 253.4c-.3.1-.5.2-.7.4.3-.1.5-.3.7-.4zM339.3 272.4c-.1 0-.2-.1-.3-.1.5.1.6.1.3.1zM339.7 272.4c.2 0 .4.1.5.1-.2 0-.4 0-.5-.1zM337.9 272.1h-.2.2zM337.1 272.1zM338.5 272.2h-.2.2zM317.7 247.7c.1 0 .1 0 0 0zM318.3 247.9h.3-.3zM342.7 253.1zM318.9 247.9h-.2.2zM360.6 207.3c2.4 1 5 .9 7.6.7.6-.1 1.3-.1 2-.1.5 0 1.1.3 1.7.2.8 0 2.1-.9 1.6-1.9-.4-.8-1.5-.4-2.2-.4-1.4.2-2.9 0-4.4 0-2.9-.1-5.8 0-8.7 0 .8.5 1.5 1.2 2.4 1.5zM342.2 253.1h.4-.4c-.1 0 0 0 0 0z"/>
    <path class="st1" d="M269 211.1l.2.2c-.2-2.1.9-4 2.4-5.4h-4.9c.4 1.8.9 3.8 2.3 5.2zM265.9 206z"/>
    <path class="st2" d="M257.9 262.9c2-2.1 5.3-2.8 7.9-1.7 0-3.4-2.7-5.8-4.9-8.1-2.1-2.2-4.9-5.2-8.3-3.8-3 1.2-4.1 4.6-5 7.4-.6 1.9-1.1 3.8-1.3 5.8-.3 2-.3 4.1-1.3 6h11.3c-.4-1.9.2-4.1 1.6-5.6zM279.5 211.2c-.7 0-.5 1.6-.5 2.1-.1 1.4-.7 2.8-1.1 4.2-.9 3-1.6 5.9-2.9 8.7-1.1 2.4-2.3 4.9-1.3 7.5.6 1.8 2.3 3.6 4.4 3.2 3.1-.6 4-5.4 5.2-7.7 2.2-4.3 7.9-3.9 11.1-7.1 1.1-1.1 1.8-2.3 2.2-3.8.2-.8.3-1.6.5-2.4.2-.7.5-1.4.5-2.2-.1-1.4-1.5-2.3-1.4-3.8 0-1.6 1.2-3 2.2-4.1-4.3 0-8.7.6-13-.1-.6-.1-1.4-.4-1.9 0-.6.4-.5 1.2-.6 1.9-.4 1.8-1.9 3-3.4 3.6z"/>
    <path class="st1" d="M230.2 257.6c1.7 0 3.4.3 4.9 1 1.3.6 2.9 1.7 4.3.8 2-1.3.7-4.4-.3-6-2.8-4.5-8.9-4.8-12-9-.7-1-1.5-2.6-.2-3.5 1-.7 2.5-.2 3.4.3 2.3 1.1 4.1 3.5 6.8 3.3 2.6-.2 4.2-2.9 3.9-5.4-.4-2.9-2.8-5.3-5.5-6.4-1.5-.6-3.1-.7-4.5-1.6-1.4-.9-2.2-2.5-2.5-4.1-.3-1.7-.2-3.5-.9-5.1-.6-1.5-1.9-2.7-3.3-3.5-1.1 1.9-1.9 4.1-3.7 5.4-1.9 1.4-4.3 1.4-6.5 1-2.7-.5-5.4-1.3-8-2.2-2.2-.7-4.5-1.5-5.8-3.5-1.3-2-1.2-4.5-1-6.8.1-1.4.3-3.5-1.6-3.6-1.7-.1-3.6 1.8-4.1 3.3-.7 2 1.4 3.3 2 4.9 1.6 4.2-3.5 7.3-5.7 10.1 2.7-2.3 6.5-3.1 9.9-2.4 2.8.6 5.8 2.3 6.5 5.3.4 1.9-.3 3.7-.1 5.6.2 1.8 1.3 3.2 2.4 4.5 1.7 2.1 4.6 5.6 1.3 7.7-2.6 1.7-5.9 0-8.4-1-1.6-.6-3.5-1.4-5.3-1.1-1.6.3-2.9 1.6-2.1 3.3.6 1.3 2.1 2.1 3.3 2.8 1.7 1 3.4 1.9 5.4 2.2 3.8.5 7.4-1.4 11.1-1.3 3 .1 6.6 1.4 7.4 4.6.4 1.8-.3 3.9.8 5.5 1 1.5 3 1.8 4.5 2.3.4-2.6.2-7.1 3.6-7.4zM215.6 208.5c5.7 0 11.1-2 16.7-2.5h-24.9c2.1 2.2 5.4 2.5 8.2 2.5z"/>
    <path d="M395.5 213.3zM393.5 221.3c.4-.4.8-.8 1-1.2-.2.4-.5.9-1 1.2zM393.1 221.7z"/>
    <path class="st1" d="M314.6 206.2c1.2.6 2.1 1.6 3.4 1.7 1.5.1 3-.9 4-1.9h-7.8c.1.2.2.2.4.2zM250.4 228.9c1.3-1.3-.2-2.9-1.2-3.8-1.3-1.2-2.9-2.1-3.6-3.8-.7-1.4-.9-3.3-2.5-4-1.6-.6-3 .6-3.5 2-1 3.3 1.5 6.9 3.1 9.5.8 1.4 2 2.8 3.8 2.2 1.5-.4 2.3-2.1 3.9-2.1zM289.7 258.8c0-3.3 1.7-6.1 2.5-9.2.9-3.1.6-6.5 1.9-9.5-3.3 0-5.6 3.1-6.2 6.1-.7 3.5.3 7.2-2.1 10.3-1.1 1.4-2.3 2.6-2.9 4.3-.6 1.6-.9 3.3-2.3 4.5-2.4 1.9-6 1-8.5-.1-3-1.3-5.8-3.6-9.1-3.8-1.6-.1-3.2.4-4.4 1.5-1.1.9-2.6 3-2 4.5.8 2.1 5.1 1.1 6.8 1.1 4.3-.1 8.6-.1 12.9 0 2.2 0 4.5.2 6.7.3 1.8.1 3.8 0 5.2-1.4 2-2.2 1.5-5.9 1.5-8.6zM297.5 211.6c1.4 1.8 4.1 1.9 6.1 1.1 1.2-.5 2.2-1.5 2.7-2.6.3-.6.4-1.3.7-1.9.3-.7.7-1.3.7-2.1-1.5 0-3 .1-4.6 0-1.3-.1-2.6-.4-3.9.3-1.6.8-2.9 3.5-1.7 5.2z"/>
    <path class="st2" d="M402.3 243.8c-2.2 2.7-4.7 5.2-7.9 6.8-2.5 1.2-6.4 2.1-8.2-.7-1.4-2.2-.6-5.2-.2-7.6.6-3.4.3-6.6-1.5-9.6-1.5-2.5-9.6-13.9-13-8.3-1.8 3-.1 7 1.5 9.7 1.7 3 3.7 5.8 4.5 9.2.5 2 .8 4 1.3 6 .6 2.1 1.5 4.1 2.1 6.3 1.2 4.3 1.3 8.8 1 13.2 2.5 0 5.3 1.1 7.7.1 1.9-.7 1.5-2.5 1.7-4.2.1-1.4.8-3.3 2.6-2.8 1 .3 1.8 1.2 2.3 2.1.3.5.5 1.1.6 1.7.1.4-.1.9.2 1.3 1.3-1.3 1.9-3.2 2.5-4.9.7-2.1 1.5-4.2 2.1-6.3 1.2-4.4 2-9 2.1-13.5-.2.5-.9.9-1.4 1.5zM382.3 208.5c1.7 0 3.7-.5 4.7 1.3.8 1.4.1 3.1 0 4.6-.2 1.9.4 3.5 1.6 4.9 1 1.1 2.6 2.6 4.2 2.3 1.5-.3 1.7-1.9 2-3.1.4-1.3 1.2-3 .6-4.3-.4-.8-1.2-.8-1.8-1.4-.6-.6-.5-1.5-.4-2.3.1-.7.6-1.5 0-2.1-.5-.6-1.4-.2-2-.2.4-.7 1.7-.6 1.9-1.4.4-1.2-1.5-.9-2.1-.8-3.7.4-7.4 0-11.1 0 .9.8 1.2 2.1 2.4 2.5z"/>
    <path d="M310.3 262.7c-1.7-3.9-5.4-6.5-7.2-10.3-1.1-2.3-1-4.7-.2-7 .7-2.2 1.9-4.6.7-6.8-1.7-3.1-6.2-1.7-7.8.7-1.3 1.8-1.6 4.2-2 6.4-.5 2.5-1.1 4.9-1.7 7.3-.7 2.7-1.2 5.5-1.6 8.3-.3 2.5-.7 5.1-2.3 7.1 5.9 0 12-.7 17.9 0 1.5.2 3.5.9 4.9 0 1.8-1.4-.1-4.2-.7-5.7zM332.6 246.6c.9 0 1.7.5 2.6.4.7-.1 1.4-.5 1.9-1.1 1.3-1.4.9-3.2 1.1-4.9.1-1.6.7-3.1 1.8-4.3 1.1-1.2 2.7-2 3.5-3.5 3-5.1-3.7-9.9-7.6-11.8-3.9-1.9-10.6-3.4-13.3 1.2-1.9 3.3-.2 6.9-.2 10.4s-2.4 5.9-4.2 8.6c-.9 1.3-2.1 3.2-1.5 4.8.6 1.6 2.3 1.6 3.7 1.4 2.2-.3 4.4-1 6.5-1.7 1-.3 2-.7 3-.5.9.2 1.7 1 2.7 1zM348.3 269.3c1.3-1.6 1.9-3.8 1.4-5.8-.5-2.1-2-3.7-2.8-5.6-.6-1.5-1-3.3-2.5-4.2-1.5-.9-3.6-.5-4.8.7-3.1 2.9.3 7.1-.3 10.5-.3 1.8-1.6 3.4-3.3 4-1.5.5-3.5.3-4.5 1.8 1.4.3 2.3 1.5 3.6 1.8.9.2 1.9-.2 2.9-.1.8.1 1.5.4 2.3.3 1.4-.2 2.3-1.4 3.7-1.8.8-.2 1.7 0 2.5-.2.8-.3 1.3-.8 1.8-1.4z"/>
    <path d="M311.7 268.4H202.3c0 1-.2 1.5-.7 2.3-.2.3-.9 1.4-.2 1.6.7.2 1.4-2.3 1.6-2.7.9-1.2 2.8-.6 4-.6 2.3.1 4.6.1 7 .1 9.1 0 18.2-.1 27.3-.1h70.1c2.5 0 5 0 7.4-.2 1.1-.1 3.1-.3 3.1 1.3.7-.6.8-1.6-.1-2-.9-.4-2 .1-2.9.3-2.3.4-4.8 0-7.2 0zM341.7 285.2c.1-.2.3-.4.5-.4-.9-.9.1-3.2 1.4-3.2-1-1.2 1.5-2.6 2.1-3.3.5-.6 1.7-3.1 2.7-2.1 0-1.2 2.1-2.8 3.2-1.8 0-1.1 1.6-1 2.3-1.1-1.9 0-3.8-.5-5.6.2-1.5.6-2.6 1.9-3.5 3.1-2.1 2.9-3.5 6.3-4.1 9.8h.8c-.1-.4 0-.8.2-1.2zM400.9 286.4c-.7-1.3-1.1-3.1-.5-4.5.8-1.7 2.1-.7 3.4-1.2 1.4-.6 1-2.3.9-3.5-.2-1.6-.3-3.2-2-3.9-1.7-.7-3.8 0-5.6 0-2.2.1-4.4 0-6.6 0h-13.3c.9.9 1.1 2.4 2.4 2.9.7.2 1.3.1 1.8.7.4.6.1 1.4.1 2-.1 1.7-.2 3.3-.3 5-.1 1.2-.1 2.3 1.3 2.6 1.5.3 3.1-.1 4.6-.2 1.8-.1 3.7 0 5.5 0 1.8 0 3.7.2 5.5-.1.7 0 2.4-.6 2.8.2zM187 284.2c.3-.9.3-2.6 1.6-2.6-1-1.2 1.4-2.5 2.1-3.2.5-.6 1.7-3.3 2.8-2.2 0-1.2 2.1-2.8 3.1-1.8 0-1.3 1.8-1 2.6-1.3-1.9 0-3.8-.5-5.6.2-1.5.6-2.7 1.8-3.7 3.1-2.2 2.9-3.6 6.4-4.2 10 .9 0 .8-1.3 1.6-1.6-.2-.2-.3-.4-.3-.6zM300.3 284.2c.3-.9.3-2.6 1.6-2.6-1-1.2 1.5-2.6 2.1-3.3.5-.6 1.7-3.1 2.7-2.1 0-1.2 2.1-2.8 3.2-1.8 0-1.1 1.6-1 2.4-1.2-1.8 0-3.8-.5-5.6.1-1.6.5-2.7 1.9-3.7 3.2-2.1 2.9-3.5 6.3-4.1 9.9.9 0 .9-1.3 1.7-1.6-.2-.2-.3-.4-.3-.6zM222.3 273.2c.5.5 1 1 1.3 1.6.3.5.4 1.1 1 1.4.5.3 1.1.1 1.6.4.6.5.4 1.2.4 1.8-.1 1.7 0 3.4-.1 5.1-.1 1.2-.2 2.4 1 3 1.2.6 2.8 0 4.1-.1 1.8-.2 3.6-.1 5.3-.1h11c14.6 0 29.1.2 43.7.1 1.3 0 2.6-.1 3-1.5.5-1.6.2-3.6-.1-5.2-.1-.8-.5-1.8 0-2.5.3-.5.9-.5 1.4-.7 1.5-.7 1.9-2.3 3-3.4h-60.1c-5.4.1-11 .1-16.5.1zM365.5 274.4c.8-.8 1.8.5 2.4 1 1 .9 2.2 1.5 3.2 2.3.7.6 3.4 2.6 2.3 3.7 1.4 0 2.2 2.4 1.3 3.3.4 0 .4.6.6.8.3.4.6.7 1.2.7-.6-3.6-2-7-4.1-9.9-.9-1.2-2-2.5-3.5-3.1-1.8-.7-3.8-.2-5.6-.2.6.5 1.8.4 2.2 1.4zM337.6 276.3c.6-1.1 1.4-2.1 2.2-3h-4.4c.9.8 1.6 1.9 2.2 3zM321.5 273.3c.7.2 2.3 0 2.3 1.1.8-.8 1.8.4 2.4.9 1 .9 2.1 1.6 3.2 2.5.7.6 3.4 2.7 2.4 3.8 1.3 0 2.2 2.4 1.3 3.3.9 0 .5 1.6 1.4 1.6-.6-3.5-1.9-7-4.1-9.8-.9-1.2-2-2.5-3.4-3-1.9-.8-3.7-.4-5.5-.4z"/>
    <path d="M401.4 281.1c-.3-.1-.3 1.9-.3 2.2.1 1.8.5 3.6 1.3 5.2.8 1.8 3 5 5.2 2.9 2.1-2.1.2-5.6-.8-7.8-.5-1-1.1-2.2-2.4-2.2-.7-.2-2.5.8-3-.3zm4.4 6.5c2.3 0 2.3 3.5 0 3.5-2.2 0-2.2-3.5 0-3.5zM193.3 272.8c1-.6 2.1-1.1 3.2-1.3.5-.1 1.5-.1 1.4-.8-4 .2-9.1-.9-12.2 2.4-.7.8-1.2 1.9-2 2.6-.8.7-2 .9-2.5 2-.5 1 0 2.4 0 3.5.1 1.5.1 3 .1 4.5.1 2.8.2 5.5-.1 8.2-.1 1.2-.4 3.4 1.3 3.5 1.8.2 2-2.1 2-3.4.1-2.8 0-5.6.5-8.3 1.1-4.9 3.6-10.2 8.3-12.9zM225.9 277c-2.6 0-3.6-3.2-5.4-4.6-2.3-1.7-5.1-1.2-7.8-1.5-.8-.1-1.8-.6-2.6-.4-1.3.4 0 1.1.7 1.3 2.7.9 5 2 6.9 4.2 4.1 4.6 5.2 11 5.1 16.9 0 1.2-.4 2.8.4 3.8s2.3.8 2.9-.3c.7-1.4.1-3.1 0-4.6-.2-1.8 0-3.6 0-5.5-.1-.8-.8-9.3-.2-9.3zM411.1 232.7c0 9.5-.3 19 0 28.6.3 9.4 1.5 18.8 2.1 28.3.1 2.1.3 4.3.4 6.4 0 .4.3 3.2 1.2 2.1.5-.6-.1-2.5-.2-3.2-.3-2.3-.6-4.7-.8-7-.9-9.5-1.9-19-2.1-28.6-.1-5.4.1-10.7.1-16.1 0-2.4-.1-4.9.2-7.3.1-.9.5-3.2-.9-3.2z"/>
    <path d="M409.2 228.8c-.8-2.9-1.9-5.6-2.9-8.4-1-2.7-1.3-5.6-2.4-8.2-.9-2.1-2.5-3.3-4.8-3.7-1.4-.3-4-.8-5.2.3 0-.1 0-.2-.2-.3.3.1.1-2.4 0-2.7-.6-1.2-2.7-.7-3.7-.5-2.2.3-4.4.2-6.6.2H219.5c-5.1 0-10.2 0-15.3.2-2.5.1-4.9.2-7.4.2-2.4 0-4.7-.4-7.1-.6-1.6-.2-3.5-.3-4.1 1.5-.6 1.9.2 4.3.1 6.3-.1 2.4-.9 4.6-1.7 6.9-.8 2.2-1.5 4.5-2.1 6.8-1.2 4.8-1.3 9.6-1.7 14.5-.2 2.4 0 4.8.2 7.2.3 2.2 1.2 4.1 1.6 6.3.5 2.3 1.1 4.5 1.9 6.7.7 1.9 1.3 4 2.8 5.5.7.7 1.6 1.4 2.5 1.7.9.3 2 .1 2.9.5.4.2 1.1 1.2 1.6 1.1.7-.2 0-1.2-.3-1.5-.7-.5-1.7-.3-2.5-.4-1-.1-2.1-.5-2.9-1.1 1 .1 4.4-.7 4.4 1.1 1.9-1.9 5-2.8 7.6-2 1.4.4 2.7 1.3 4.2 1.2 1.5 0 3-.7 4.6-.5 1.3.2 2.3 1.2 3.6 1.6 1.5.6 3.2.3 4.7.2 3.7-.3 7.4 0 11 0-.5-3.1-4.4-3-6.5-4.7-2.6-2.2-1.4-6.1-3.3-8.7-2.1-2.8-6.2-2.4-9.2-1.7-2.1.4-4.2 1-6.4 1s-4.2-.9-6-2c-1.6-1-6.5-4.1-4.1-6.5 2.8-2.7 7.5.1 10.5 1 2.1.7 7.3 1.6 6.8-2.3-.2-1.8-1.9-3.1-3-4.4-1.3-1.5-2.2-3.1-2.3-5.2-.1-2.2.6-4.6-.6-6.7-1-1.7-3-2.6-4.9-3-2.3-.5-4.8-.6-7 .3-2.2.9-3.5 2.8-5.2 4.4.6-2.3 2.2-4.2 3.7-6 1.4-1.5 3.3-3.2 3.6-5.4.3-1.8-1.4-2.6-2.3-3.9-1.4-1.8-.3-3.9 1.4-5.1 1.1-.9 3.4-2.1 4.6-.7.9 1.2.5 3.2.4 4.6-.2 3.7 1.8 6.7 5.2 8.2 2.2.9 4.6 1.2 6.9 1.8 2.3.5 4.7 1.7 7.1 1 4-1.3 4.9-6.4 8.1-8.6 2-1.4 4.5-1.8 6.8-.9 2 .8 4 2.2 6 .6 2.6-2.2 1.8-6.5-1-8.1-2.3-1.3-5.3-1-7.8-.5-2.9.6-5.7 1.4-8.6 1.9-3 .5-6.1.8-9.1.3-1.3-.2-2.5-.6-3.7-1.3-1-.6-1.9-1.5-3.2-1.7 10.5-.2 21.1 0 31.6 0h15.2c.9 0 2.5-.3 3.3.1.7.3.9 1.1 1.3 1.7 1.1 1.8 2.5 3.7 2.9 5.9.6 3.9-2 8.7 1.8 11.7-1.8 1.8-2 4.8-4.2 6.3-1.9 1.2-5.4.9-5.9 3.7-.5 2.6 2.6 4.6 4.3 5.9 2.4 1.7 5.1 3.4 8 3.9 2.5.4 5.4-.2 7-2.4 1.7-2.3 1.1-5 .4-7.5-.3-1.3-.6-2.7-.6-4.1 0-1.4.4-2.7.6-4 .1-1.2.1-2.5-.3-3.7-.5-1.3-1.6-2.2-2.3-3.5-.7-1.3-.4-2.4.3-3.6.8-1.4 1-2.5.2-4-.6-1.2-1.3-2.2-1.8-3.4-.4-1.2-.9-2.5-2.2-2.9h8.3c-1.5.6-.2 2.3.5 3.1 1.2 1.3 2.8 1.9 4.5 1.5 1.9-.4 3.6-1.8 4.4-3.6.3-.7.3-.9 1.1-1 1.2-.1 2.4 0 3.6 0h32.7c22.1 0 44.2.2 66.3 0 1.4 0 2.8-.1 4.2-.3.9-.1 2.1-.2 2.7.7 1.3 1.7-.7 4 .3 5.7.5.8 1.4.9 2 1.5.7.6.5 1.6.4 2.5-.1 2.1-.4 4.6-2.4 5.9 1.2.8 2.2 1.8 3.4 2.5 1.1.7 2.4 1.1 3.4 2 1.7 1.7 1.4 4.2.3 6.1-1.2 2-3.2 3.6-3.8 6-.6 2.8 1.2 5.2 2.4 7.6 1.7-1.6 3.7-3.3 4.3-5.6 0 5.1-.7 10.2-2 15.1-.6 2.3-1.3 4.6-2.2 6.8-.7 1.9-1.5 3.8-3.2 5 1-1.8-1.6-6.5-3.8-5-1.7 1.1-.3 4.3-.6 5.9.4 0 .8 0 1.2.1-3.9.3-7.8 0-11.7 0-4 0-7.9-.1-11.9 0-3.9 0-7.8.3-11.7.1-1.2 0-3.2-.8-4.3-.4-.9.4-1.5 1.9-.3 2.2 0-1.5 1.4-1.4 2.4-1.3 1.9.1 3.8.1 5.7 0 4-.1 8 0 12 0s8-.2 12 0c3.4.1 7.1.9 10.3-.7 2.8-1.4 4-4.4 4.9-7.2 1.3-3.7 2.4-7.5 3-11.4 1.3-7.7.7-15.5-1-23-.8-3.8-1.7-7.8-3.9-11.1-.9-1.4-2-2.2-3.5-3-.6-.3-.9-.6-1-1.3 0-.4.2-.7.2-1.1 0-.4-.3-.7-.5-1.1.9.7 2.5 0 3.4-.1 1.4-.2 2.8-.1 4 .7 2.1 1.5 2.1 4.5 2.9 6.8-1 0-2-.3-3.1-.2-1.5.2-1.3 1-.2 1.7 1.2.8 2.4 1.3 3.7 2 1.8 1 1.7 2.9 2.3 4.6-.8 0-4.2-.6-3.6 1 .4 1.1 2.6 1.7 3.4 2.2 1.3.7 2.7 2 2.5 3.7-.2 2.2-2.3.3-3.4.7-1.8.5 1 2.6 1.6 3 .6.5 1.3 1 1.7 1.8.5.9.3 2 .2 2.9-.4 5.1-.2 10.1-.1 15.2v8.8c0 .9-.7 5.4.9 5.4 0-7-.1-14.1 0-21.1.7-7.1 1.4-13.8-.3-20.2zM218.2 283.7c-.1-.1-.1-.2-.2-.4.1.2.2.3.2.4z"/>
    <path d="M218.1 283.5c-.2.1-.5.2-.7.2.2-.1.5-.2.7-.2zM205.3 306c-.6.2-.6-.8-1.2-.7-.6.1-.5.9-.2 1.3.3.5 1.2.7 1.7.5.8-.3.8-1.1.8-1.9-.5.1-1.1.3-1.1.8zM206.4 273.6c0-.5-1-.5-1.4-.4-.8.2-.9 1-1.3 1.6.4 0 .7.1 1.1-.1.2-.1 0-.4.2-.4.6-.1.8.7 1.3.9 0-.5.1-1.1.1-1.6zM202 306c-.6 0-.8-.8-1.3-1 0 .9.3 1.6 1.2 1.8 1.6.3.8-.9 1.4-1.6-.6.1-1.1.3-1.3.8zM203.1 274.7c-.1-.7-.3-1.4-1.2-1.5-.7-.1-1.5.4-1.4 1.1.1.9.4.5.8.3.2-.1.3-.4.6-.5.5-.1.9.5 1.4.5 0 .1-.1.2-.2.1.1.1.1.1 0 0zM186.7 291.3c.5 0 1.2.4 1.5-.2.2-.3-.2-1.3-.6-1.1 1-.4-.1-1.8-.9-1.1-.7.6 0 1.8 0 2.4zM219.5 289.9c0 .4-.2 0-.4.3-.3.3-.4.7-.5 1.1 1.1 0 2.8-1.3 1.6-2.4-.9-.8-2 .6-.7 1zM188.5 287.1c-1 .1.1-.7.2-.9.2-.6-.4-1-.9-.8-1.8.5-.5 2.5.7 2.7-.2-.3 0-.7 0-1zM193.1 276.8c-.6.5-2 1.1-1.5 2.1.2.4.7.8 1.1.5.5-.3-.2-.9.2-1.3.3.3 1.1.4 1.3-.2.1-.5-.8-.8-1.1-1.1zM219.2 293.3c0 .2-1 .6-1.1 1.2.6 0 1.2.1 1.7-.4.4-.4.7-1.2.3-1.7-.7-1-2.1.5-.9.9zM190.5 279.2c-.4.6-1.6 1.2-1.1 2.1.2.3.5.6.9.4.5-.3.1-.5.3-.8.2-.4-.2-.3.3-.5.3-.1.4.3.7.1.5-.4-.8-1.1-1.1-1.3zM218.4 286.7c1.2 0 .4.2.3.7-.3 1.1 1.2.6 1.6 0 1.1-1.8-2.4-2.4-1.9-.7zM213.9 276.8c-.4.4-.8.8-1.1 1.2.5.3 1.1-.1 1.5.4.1.1-.2.1-.2.2.2.4.4.7.6 1.1.4-.5 1-1.2.6-1.9-.3-.5-1-.6-1.4-1zM199.4 273.7c-.8.2-2.1.3-2.1 1.3 0 .4.2.9.7.9.6 0 .4-.8.6-1.1-.2.4.8.7 1 .5.6-.3 0-1.1-.2-1.6zM194.2 302.2c-.4-.3-.9-.5-1.3-.1-.4-.4.3-1-.2-1.3-.5-.3-1.1.2-1.3.7-.2.6.4 1.3 1 1.5.8.3 1.3-.2 1.8-.8zM191.9 300c-.4-.4-1-.3-1.2-.5-.4-.4.1-1-.2-1.5-.8.6-1.3 1.5-.5 2.3.7.8 1.3.3 1.9-.3zM216.5 299.3c-.3.3-1.2 0-1.4.4-.4.8.9.9 1.4.7.7-.2 1.3-1.1.9-1.8-.5-.9-1.6 0-.9.7zM217.6 296.1c.2.1.5.2.7.4-.3.5-1.2.1-1.3.8-.1 1 1.4.7 1.9.4 1.4-1.2-.9-3.2-1.3-1.6zM207.6 273.7c-.2.5-.4 1.1-.5 1.6.4.1 1-.5 1.3-.4.5.2.1 1.7 1.1 1 .6-.4.3-1.3-.2-1.6-.5-.4-1.2-.4-1.7-.6zM198.7 305.4c-.6 0-.3-.9-.8-1.1-.6-.2-.8.7-.7 1.1.1.6.9 1.1 1.5 1 .8-.1 1-.8 1.2-1.5-.4-.1-1 0-1.2.5zM216.4 279.2c-.4.3-.8.6-1.3.9.2.2.5.6.8.7.1 0 .4-.4.5-.2.2.3-.2.2-.2.4.1.4.1.8.2 1.1.4-.3.8-.7 1.3-1-.4-.5-.8-1.2-1.3-1.9zM187.8 293.6c-.1-.5 1.2-1.2.3-1.7-.7-.3-1.3.8-1.3 1.3-.1.6.5 1.8 1.3 1.5.6-.2.5-1.3-.3-1.1zM187.6 284.3c.5.2 1 .4 1.4.7.1-.3.3-.5.3-.9 0-.2-.5-.2-.4-.5.1-.5.9-.7 1.2-1.1-.6-.2-1.3-.5-1.9 0-.4.6-.4 1.3-.6 1.8zM213.9 301.3c.2.2.4.6.2.9-.4-.4-.9-.2-1.3.1 1.4 1.4 3.4-.3 1.9-1.8-.3.2-.5.6-.8.8zM189.7 296.5c-.1 0-.8.1-.9 0-.1-.2.7-.7.1-1.2-.5-.4-1 .2-1.1.7-.2 1.2 1.3 1.8 2.3 1.3-.2-.2-.4-.5-.4-.8zM208.4 304.5c0 .2.1.5.2.7-.5 0-.8-.8-1.4-.4-.5.3-.2 1.1.2 1.4 1.5.9 2.2-1.1 1.8-2.2-.1.3-.4.4-.8.5z"/>
    <path d="M217.4 283.6c.3-.1.6 0 .8.2-.5.2-.4.9-.3 1.3.4-.2 1.1-.3 1.3-.8.3-.6-.1-1.3-.6-1.7-1.3-.8-.7 1-1.2 1zM211.7 303.9c-.4.4-1.1-.5-1.5-.3-.9.5.6 1.2 1 1.3.7.1 1.5-.2 1.7-1 .2-1.4-1.8-1-1.2 0zM212.9 276.1c-.6-.4-2.4-1.8-2.8-.5-.2.7.4.7.9.8.1 0 .2-.4.4-.3.3.2.1.7-.1.8.3.2.6.4.9.5.2-.4.5-.8.7-1.3zM194 276.1c.3.4 0 1 .6 1.2.4.2.7-.3 1.1-.3-.2 0 .8-.6.9-.7.4-.2.8-.2.3-.9-.8-1-2.2.3-2.9.7zM195.6 304.1c-.4-.3-.1-1.8-.9-1.4-.5.2-.4 1.3-.2 1.7.3.7 1.6 1.3 2.1.4.3-.6-.5-1.5-1-.7z"/>
    <path d="M215.6 281.9c-3.4-5-10.1-7.5-16-5.9-5.8 1.5-10.2 6.9-10.8 12.9-.5 6.1 3.1 12.2 8.7 14.7 5.4 2.4 12.3 1.2 16.4-3.2 4.7-4.9 5.4-13 1.7-18.5zm-9.8 15.7c-3.3 1.2-7.2-.5-8.9-3.4-1.9-3-1.3-7.3 1.3-9.7 4.2-3.9 12-1.6 13 4.2.6 3.7-1.7 7.8-5.4 8.9zM331.6 283.7c-.1-.1-.1-.2-.2-.4.1.2.1.3.2.4z"/>
    <path d="M331.5 283.5c-.2.1-.5.2-.7.2.2-.1.5-.2.7-.2zM318.7 306c-.6.2-.6-.8-1.2-.7-.6.1-.5.9-.2 1.3.3.5 1.2.7 1.7.5.8-.3.8-1.1.8-1.9-.5.1-1.1.3-1.1.8zM319.8 273.6c0-.5-1-.5-1.4-.4-.8.2-.9 1-1.3 1.6.4 0 .7.1 1.1-.1.2-.1 0-.4.2-.4.6-.1.8.7 1.3.9 0-.5.1-1.1.1-1.6zM315.3 306c-.6 0-.8-.8-1.3-1 0 .9.3 1.6 1.2 1.8 1.6.3.8-.9 1.4-1.6-.5.1-1 .3-1.3.8zM316.5 274.7c-.1-.7-.3-1.4-1.2-1.5-.7-.1-1.5.4-1.4 1.1.1.9.4.5.8.3.2-.1.3-.4.6-.5.5-.1.9.5 1.4.5 0 .1-.1.2-.2.1.1.1.1.1 0 0zM300.1 291.3c.5 0 1.2.4 1.5-.2.2-.3-.2-1.3-.6-1.1 1-.4-.1-1.8-.9-1.1-.7.6 0 1.8 0 2.4zM332.9 289.9c0 .4-.2 0-.4.3-.3.3-.4.7-.5 1.1 1.1 0 2.8-1.3 1.6-2.4-.9-.8-2 .6-.7 1zM301.9 287.1c-1 .1.1-.7.2-.9.2-.6-.4-1-.9-.8-1.8.5-.5 2.5.7 2.7-.2-.3-.1-.7 0-1zM306.5 276.8c-.6.5-2 1.1-1.5 2.1.2.4.7.8 1.1.5.5-.3-.2-.9.2-1.3.3.3 1.1.4 1.3-.2 0-.5-.8-.8-1.1-1.1zM332.6 293.3c0 .2-1 .6-1.1 1.2.6 0 1.2.1 1.7-.4.4-.4.7-1.2.3-1.7-.7-1-2.1.5-.9.9zM303.9 279.2c-.4.6-1.6 1.2-1.1 2.1.2.3.5.6.9.4.5-.3.1-.5.3-.8.2-.4-.2-.3.3-.5.3-.1.4.3.7.1.5-.4-.8-1.1-1.1-1.3zM331.7 286.7c1.2 0 .4.2.3.7-.3 1.1 1.2.6 1.6 0 1.2-1.8-2.3-2.4-1.9-.7zM327.3 276.8c-.4.4-.8.8-1.1 1.2.5.3 1.1-.1 1.5.4.1.1-.2.1-.2.2.2.4.4.7.6 1.1.4-.5 1-1.2.6-1.9-.3-.5-1-.6-1.4-1zM312.8 273.7c-.8.2-2.1.3-2.1 1.3 0 .4.2.9.7.9.6 0 .4-.8.6-1.1-.2.4.8.7 1 .5.6-.3 0-1.1-.2-1.6zM307.6 302.2c-.4-.3-.9-.5-1.3-.1-.4-.4.3-1-.2-1.3-.5-.3-1.1.2-1.3.7-.2.6.4 1.3 1 1.5.8.3 1.3-.2 1.8-.8zM305.3 300c-.4-.4-1-.3-1.2-.5-.4-.4.1-1-.2-1.5-.8.6-1.3 1.5-.5 2.3.7.8 1.3.3 1.9-.3zM329.9 299.3c-.3.3-1.2 0-1.4.4-.4.8.9.9 1.4.7.7-.2 1.3-1.1.9-1.8-.5-.9-1.6 0-.9.7zM331 296.1c.2.1.5.2.7.4-.3.5-1.2.1-1.3.8-.1 1 1.4.7 1.9.4 1.4-1.2-.9-3.2-1.3-1.6zM321 273.7c-.2.5-.4 1.1-.5 1.6.4.1 1-.5 1.3-.4.5.2.1 1.7 1.1 1 .6-.4.3-1.3-.2-1.6-.5-.4-1.2-.4-1.7-.6zM312.1 305.4c-.6 0-.3-.9-.8-1.1-.6-.2-.8.7-.7 1.1.1.6.9 1.1 1.5 1 .8-.1 1-.8 1.2-1.5-.4-.1-1 0-1.2.5zM329.8 279.2c-.4.3-.8.6-1.3.9.2.2.5.6.8.7.1 0 .4-.4.5-.2.2.3-.2.2-.2.4.1.4.1.8.2 1.1.4-.3.8-.7 1.3-1-.4-.5-.8-1.2-1.3-1.9zM301.2 293.6c-.1-.5 1.2-1.2.3-1.7-.7-.3-1.3.8-1.3 1.3-.1.6.5 1.8 1.3 1.5.6-.2.5-1.3-.3-1.1zM301 284.3c.5.2 1 .4 1.4.7.1-.3.3-.5.3-.9 0-.2-.5-.2-.4-.5.1-.5.9-.7 1.2-1.1-.6-.2-1.3-.5-1.9 0-.4.6-.4 1.3-.6 1.8zM327.3 301.3c.2.2.4.6.2.9-.4-.4-.9-.2-1.3.1 1.4 1.4 3.4-.3 1.9-1.8-.3.2-.5.6-.8.8zM303.1 296.5c-.1 0-.8.1-.9 0-.1-.2.7-.7.1-1.2-.5-.4-1 .2-1.1.7-.2 1.2 1.3 1.8 2.3 1.3-.2-.2-.4-.5-.4-.8zM321.8 304.5c0 .2.1.5.2.7-.5 0-.8-.8-1.4-.4-.5.3-.2 1.1.2 1.4 1.5.9 2.2-1.1 1.8-2.2-.1.3-.5.4-.8.5z"/>
    <path d="M330.8 283.6c.3-.1.6 0 .8.2-.5.2-.4.9-.3 1.3.4-.2 1.1-.3 1.3-.8.3-.6-.1-1.3-.6-1.7-1.3-.8-.7 1-1.2 1zM325.1 303.9c-.4.4-1.1-.5-1.5-.3-.9.5.6 1.2 1 1.3.7.1 1.5-.2 1.7-1 .2-1.4-1.9-1-1.2 0zM326.3 276.1c-.6-.4-2.4-1.8-2.8-.5-.2.7.4.7.9.8.1 0 .2-.4.4-.3.3.2.1.7-.1.8.3.2.6.4.9.5.2-.4.5-.8.7-1.3zM307.4 276.1c.3.4 0 1 .6 1.2.4.2.7-.3 1.1-.3-.2 0 .8-.6.9-.7.4-.2.8-.2.3-.9-.9-1-2.2.3-2.9.7zM309 304.1c-.4-.3-.1-1.8-.9-1.4-.5.2-.4 1.3-.2 1.7.3.7 1.6 1.3 2.1.4.3-.6-.5-1.5-1-.7z"/>
    <path d="M329 281.9c-3.4-5-10.1-7.5-16-5.9-5.8 1.5-10.2 6.9-10.8 12.9-.5 6.1 3.1 12.2 8.7 14.7 5.4 2.4 12.3 1.2 16.4-3.2 4.7-4.9 5.4-13 1.7-18.5zm-9.8 15.7c-3.3 1.2-7.2-.5-8.9-3.4-1.9-3-1.3-7.3 1.3-9.7 4.2-3.9 12-1.6 13 4.2.5 3.7-1.7 7.8-5.4 8.9z"/>
    <g>
        <path d="M373.4 283.7c-.1-.1-.1-.2-.2-.4.1.2.1.3.2.4z"/>
        <path d="M373.3 283.5c-.2.1-.5.2-.7.2.2-.1.4-.2.7-.2zM360.4 306c-.6.2-.6-.8-1.2-.7-.6.1-.5.9-.2 1.3.3.5 1.2.7 1.7.5.8-.3.8-1.1.8-1.9-.4.1-1.1.3-1.1.8zM361.6 273.6c0-.5-1-.5-1.4-.4-.8.2-.9 1-1.3 1.6.4 0 .7.1 1.1-.1.2-.1 0-.4.2-.4.6-.1.8.7 1.3.9 0-.5.1-1.1.1-1.6zM357.1 306c-.6 0-.8-.8-1.3-1 0 .9.3 1.6 1.2 1.8 1.6.3.8-.9 1.4-1.6-.5.1-1 .3-1.3.8zM358.3 274.7c-.1-.7-.3-1.4-1.2-1.5-.7-.1-1.5.4-1.4 1.1.1.9.4.5.8.3.2-.1.3-.4.6-.5.5-.1.9.5 1.4.5-.1.1-.1.2-.2.1 0 .1 0 .1 0 0zM341.8 291.3c.5 0 1.2.4 1.5-.2.2-.3-.2-1.3-.6-1.1 1-.4-.1-1.8-.9-1.1-.6.6 0 1.8 0 2.4zM374.7 289.9c0 .4-.2 0-.4.3-.3.3-.4.7-.5 1.1 1.1 0 2.8-1.3 1.6-2.4-1-.8-2 .6-.7 1zM343.7 287.1c-1 .1.1-.7.2-.9.2-.6-.4-1-.9-.8-1.8.5-.5 2.5.7 2.7-.2-.3-.1-.7 0-1zM348.3 276.8c-.6.5-2 1.1-1.5 2.1.2.4.7.8 1.1.5.5-.3-.2-.9.2-1.3.3.3 1.1.4 1.3-.2 0-.5-.8-.8-1.1-1.1zM374.4 293.3c0 .2-1 .6-1.1 1.2.6 0 1.2.1 1.7-.4.4-.4.7-1.2.3-1.7-.7-1-2.2.5-.9.9zM345.7 279.2c-.4.6-1.6 1.2-1.1 2.1.2.3.5.6.9.4.5-.3.1-.5.3-.8.2-.4-.2-.3.3-.5.3-.1.4.3.7.1.5-.4-.8-1.1-1.1-1.3zM373.5 286.7c1.2 0 .4.2.3.7-.3 1.1 1.2.6 1.6 0 1.2-1.8-2.3-2.4-1.9-.7zM369.1 276.8c-.4.4-.8.8-1.1 1.2.5.3 1.1-.1 1.5.4.1.1-.2.1-.2.2.2.4.4.7.6 1.1.4-.5 1-1.2.6-1.9-.4-.5-1-.6-1.4-1zM354.6 273.7c-.8.2-2.1.3-2.1 1.3 0 .4.2.9.7.9.6 0 .4-.8.6-1.1-.2.4.8.7 1 .5.6-.3 0-1.1-.2-1.6zM349.4 302.2c-.4-.3-.9-.5-1.3-.1-.4-.4.3-1-.2-1.3-.5-.3-1.1.2-1.3.7-.2.6.4 1.3 1 1.5.8.3 1.3-.2 1.8-.8zM347.1 300c-.4-.4-1-.3-1.2-.5-.4-.4.1-1-.2-1.5-.8.6-1.3 1.5-.5 2.3.7.8 1.2.3 1.9-.3zM371.7 299.3c-.3.3-1.2 0-1.4.4-.4.8.9.9 1.4.7.7-.2 1.3-1.1.9-1.8-.5-.9-1.6 0-.9.7zM372.7 296.1c.2.1.5.2.7.4-.3.5-1.2.1-1.3.8-.1 1 1.4.7 1.9.4 1.5-1.2-.9-3.2-1.3-1.6zM362.7 273.7c-.2.5-.4 1.1-.5 1.6.4.1 1-.5 1.3-.4.5.2.1 1.7 1.1 1 .6-.4.3-1.3-.2-1.6-.4-.4-1.1-.4-1.7-.6zM353.9 305.4c-.6 0-.3-.9-.8-1.1-.6-.2-.8.7-.7 1.1.1.6.9 1.1 1.5 1 .8-.1 1-.8 1.2-1.5-.4-.1-1.1 0-1.2.5zM371.6 279.2c-.4.3-.8.6-1.3.9.2.2.5.6.8.7.1 0 .4-.4.5-.2.2.3-.2.2-.2.4.1.4.1.8.2 1.1.4-.3.8-.7 1.3-1-.4-.5-.8-1.2-1.3-1.9zM343 293.6c-.1-.5 1.2-1.2.3-1.7-.7-.3-1.3.8-1.3 1.3-.1.6.5 1.8 1.3 1.5.6-.2.5-1.3-.3-1.1zM342.8 284.3c.5.2 1 .4 1.4.7.1-.3.3-.5.3-.9 0-.2-.5-.2-.4-.5.1-.5.9-.7 1.2-1.1-.6-.2-1.3-.5-1.9 0-.5.6-.4 1.3-.6 1.8zM369.1 301.3c.2.2.4.6.2.9-.4-.4-.9-.2-1.3.1 1.4 1.4 3.4-.3 1.9-1.8-.3.2-.5.6-.8.8zM344.8 296.5c-.1 0-.8.1-.9 0-.1-.2.7-.7.1-1.2-.5-.4-1 .2-1.1.7-.2 1.2 1.3 1.8 2.3 1.3-.1-.2-.3-.5-.4-.8zM363.6 304.5c0 .2.1.5.2.7-.5 0-.8-.8-1.4-.4-.5.3-.2 1.1.2 1.4 1.5.9 2.2-1.1 1.8-2.2-.1.3-.5.4-.8.5z"/>
        <path d="M372.6 283.6c.3-.1.6 0 .8.2-.5.2-.4.9-.3 1.3.4-.2 1.1-.3 1.3-.8.3-.6-.1-1.3-.6-1.7-1.3-.8-.7 1-1.2 1zM366.9 303.9c-.4.4-1.1-.5-1.5-.3-.9.5.6 1.2 1 1.3.7.1 1.5-.2 1.7-1 .2-1.4-1.9-1-1.2 0zM368.1 276.1c-.6-.4-2.4-1.8-2.8-.5-.2.7.4.7.9.8.1 0 .2-.4.4-.3.3.2.1.7-.1.8.3.2.6.4.9.5.1-.4.4-.8.7-1.3zM349.1 276.1c.3.4 0 1 .6 1.2.4.2.7-.3 1.1-.3-.2 0 .8-.6.9-.7.4-.2.8-.2.3-.9-.8-1-2.1.3-2.9.7zM350.8 304.1c-.4-.3-.1-1.8-.9-1.4-.5.2-.4 1.3-.2 1.7.3.7 1.6 1.3 2.1.4.2-.6-.5-1.5-1-.7z"/>
        <path d="M370.8 281.9c-3.4-5-10.1-7.5-16-5.9-5.8 1.5-10.2 6.9-10.8 12.9-.5 6.1 3.1 12.2 8.7 14.7 5.4 2.4 12.3 1.2 16.4-3.2 4.7-4.9 5.4-13 1.7-18.5zm-9.8 15.7c-3.3 1.2-7.2-.5-8.9-3.4-1.9-3-1.3-7.3 1.3-9.7 4.2-3.9 12-1.6 13 4.2.5 3.7-1.7 7.8-5.4 8.9z"/>
    </g>
    <path d="M302.9 271.1c0 .8-1.1.8-1.6 1-1 .4-1.9 1.2-2.5 2.1-.5.8-.8 1.8-1.7 2.3-.8.5-1.8.5-2.2 1.6-.3.9 0 1.8.1 2.7.2 1.5.1 3.1.1 4.6 0 2.7.2 5.4-.1 8.1-.1 1.1-.5 3.2.9 3.6 1.9.6 1.8-2 1.7-3.1-.3-5 .4-10.1 2.6-14.6 2.1-4.1 5.7-8.6 10.8-8.6-2.6.1-5.4.2-8.1.3zM339.8 287c0-3.9 1.8-7.6 4.2-10.6 1.2-1.5 2.6-2.9 4.4-3.8.9-.4 2.9-.3 3.6-1.2.8-1-1.2-.9-1.8-.8-1.8.1-3.7.2-5.5.5-2.1.4-3.7 1.4-4.9 3.1-.7 1-1.5 3.2-3 2.1-1.1-.8-1.5-2.5-2.6-3.4-1.5-1.3-3.4-1.7-5.3-1.8-1.5-.1-2.9-.4-4.4-.5-.5-.1-2.3-.3-1.8.7.4.8 2.5.8 3.2 1 1.7.5 3.2 1.7 4.4 3 2.7 2.9 4.1 6.7 4.9 10.5.5 2.2.8 4.5.6 6.7-.1 1.5-.7 3.7.9 4.6.6.4 1.7.5 2.3.1.8-.5.7-1.4.7-2.2-.2-2.7-.2-5.3.1-8zM368.9 272.8c4.5 2.5 7 7.6 8 12.4.7 3 .6 6.2.6 9.3 0 1.1 0 2.3 1.3 2.8 1.2.4 2.2-.3 2.4-1.5.2-1.1-.1-2.3-.2-3.4-.1-1.7-.1-3.5-.1-5.2v-4.4c0-1.4.4-3 .2-4.4-.2-1.4-1.2-1.5-2.2-2.1-1-.7-1.7-2-2.6-2.9-2.2-2.1-4.8-2.1-7.6-2.4-.6 0-4.7-.9-3.6.6.7 1 2.8.6 3.8 1.2z"/>
    <path class="st0" d="M166.9 253.4c3.3 0 5.3 2.9 7.4 5-.1-1.4-.3-2.8-.2-4.2.1-1.2.5-2.6-.2-3.7-.6-.9-1.7-1.1-2.6-1.5-1.3-.6-2.4-1.4-3.5-2.3-1.7-1.2-3.7-2.4-4.4-4.4-.8-2.2.9-3.6 2.7-4.6 2.1-1.2 3.8-2.4 5.4-4.3.6-.8 1.5-1.8 1.5-2.8 0-1.2-1.2-2-1.6-3.1-1.1-2.5.6-5.4.3-8-.3-2.5-1.6-5.1-3-7.1-1.7-2.4-5.4-1.6-8-1.6-3.6 0-7.1 0-10.7.1.4 1.1 1.6 1.3 2.4 2 .9.8 1.2 2.1 1.2 3.3 0 2.1-.8 4.7-3 5.5-2.5 1-4.7-1.1-7-1.6-2.5-.4-5.2.7-6.6 2.7 1.4.7 3-.4 4.5.1 1.6.6 1.3 2.2 1 3.5-.7 2.7-1.8 6.6.7 8.8 1.2 1 2.7 1.2 4.1 1.6 1.7.6 3.3 1.5 4.5 2.9 2 2.4 3.1 6.4.8 8.9-2.5 2.6-5.7.4-8.1-1-1.1-.6-4.3-2.3-5.2-.5-.6 1.4 1 2.9 1.9 3.7 1.4 1.2 3.2 1.8 4.8 2.7 1.5.8 3 1.6 4.3 2.7.7.6 1.4 1.3 1.8 2.1.4 1 .4 2.1 1 3 .9 1.3 2.7 1 4.1.7 1.6-.3 2.6-1.1 3.3-2.6 1.3-2.5 2.9-6 6.4-6zm-10.1-16.6c-1.5-.7-2.2-3.6-2.8-5-.9-1.8-2.1-3.7-2.2-5.8-.2-1.9.8-3.8 2.8-4.1 1.9-.3 3.2 1.2 4 2.8.9 1.7 1.6 3.3 3.1 4.5 1.3 1 2.7 2.1 2.3 4-.6 2.9-4.5 5-7.2 3.6zM139 270zM157.6 270.3c.1.2.2.4.4.5.3-1.2.2-2.4.4-3.5.1-1.2.5-2.3.8-3.4-2.3 0-4.3-.6-6.4.7-1.9 1.2-3.2.6-5.2-.1-1.8-.7-4.3-1.6-5.9-.1-1.1 1-1.5 2.8-1.7 4.2-.3 1.6.1 3.4 2 3.7 1.7.3 3.4-.6 5-.9 2.3-.4 4.8-.4 7.1-.1.8.1 3 .6 2.8-.8.1-.1.5 0 .7-.2zM159.1 266.5c0 .2-.1.4-.1.5 0-.1.1-.3.1-.5zM133.5 283.5l-.2.2c0-.1.1-.1.2-.2zM111.6 280.6c.7 1.9-.3 3.9-1.4 5.5-.7 1.1-2.7 2.7-1.8 4.2.4.7 1.2.7 1.9.9 1.1.3 2 .9 3 1.2 2.1.8 4.4.5 6.6.5-4.4-6.6 3.6-12.6 7.3-17.2-1.1-.7-1.8-1.9-2.9-2.6-1.3-.8-2.8-.9-4.3-.7-1.5.2-2.9.7-4.4.4-1.4-.2-2.7-.9-4.1-1.1-1.5-.2-4.1 0-4.2 2-.1 1.3 1 2.2 1.8 3.1 1 1.1 1.9 2.4 2.5 3.8zM159.3 265.8c0 .2-.1.4-.1.5 0-.2 0-.3.1-.5zM158.8 268.5v0zM159.5 264.9c-.1.2-.1.4-.2.6.1-.1.1-.3.2-.6zM159.7 264.1c-.1.3-.1.5-.2.8.1-.3.1-.6.2-.8zM159.7 263.8c0 .1 0 .1-.1.2.1-.1.2-.1.1-.2zM139.5 268.1c.1-.4.2-.9.4-1.3-.3.4-.3.9-.4 1.3zM159 267.1c0 .2-.1.4-.1.6 0-.1 0-.3.1-.6zM158.7 269.4v0zM158.8 269v.4c-.1-.2-.1-.3 0-.4zM158.9 267.8c0 .2-.1.4-.1.4.1 0 .1-.2.1-.4zM139.1 269.4c.1-.4.2-.9.3-1.3-.1.4-.2.9-.3 1.3zM121.1 271.7h.2-.2z"/>
    <path class="st2" d="M159.7 264c0 2.2-2 4.6-.9 6.8.8 1.6 3 2.1 4.4 3 3.8 2.6 6.1 6.9 7.6 11.1.9 2.5 1.7 5.2 1.7 7.8 0 .9-.3 2 .3 2.8.6.9 1.6.6 2.1-.3.5-.9.2-2.1.1-3.1-.2-1.5-.3-2.9-.5-4.4-.4-2.6-1.2-5-2.5-7.3-.7-1.2-1.5-2.4-1.9-3.7-.4-1.3-.5-2.7-1.1-4-1-2.3-3.4-3.8-5.8-4.1 1.4-.1 2.7-.2 4.1-.2 1.4 0 2.7.1 4-.5 1-.4 3.3-1.8 3-3.2-.4-2-4.2-1-5.5-.9-3.1.2-6.1.2-9.1.2zM174.2 259.1c-2-2-3.8-5.3-7-5.1-1.9.1-3.2 1.4-4.3 2.8-1.2 1.5-2.6 3.2-2.6 5.2h5c1.6 0 3.3.3 5 .1.6-.1 1.3-.2 1.8-.6.4-.3.7-1 1.2-1 .4 0 1.8 1.1 1.3 1.5 1-.7-.4-2.1-.4-2.9z"/>
    <path class="st2" d="M169.8 275.4c-.1-.4-.2-.7-.3-1.1.2.4.2.7.3 1.1zM172.9 281c-.2-.4-.4-.6-.6-1 .2.4.3.7.6 1z"/>
    <path class="st1" d="M152.8 261.5c0-7.4-9.8-6.8-13-11.9-.9-1.4-1.2-3.7.9-4.1 2.3-.5 4 1.8 5.8 3 1.8 1.1 4.2 1.5 5.9 0 1.8-1.6 1.5-4.3.6-6.2-1.2-2.5-3.5-4.1-6-5.1-2.1-.9-4.8-1.5-5.5-4-3.9 1.7-7.8 3.5-11.7 5.2-1.7.8-3.5 1.5-5.2 2.3-1.7.8-3.4 1.9-5.4 1.9 0 .9.8 1.5 1.4 2 .9.7 1.7 1.5 2.4 2.5 1 1.6 1.3 3.8-.1 5.3-3.2 3.4-8.1-.5-11.4-1.5-1.4-.4-3.8-.9-4.9.4-1.4 1.7.9 3.5 2.1 4.4 2 1.5 4.2 2.7 6.7 3 2.7.3 5.3-.4 7.9-.9 2.5-.5 5.3-.7 7.5.6 2.2 1.3 3.4 3.8 3.4 6.2 1.4-2.5 4.5-2.7 7-2.7 3.9-.1 7.9 0 11.8 0-.1 0-.2-.2-.2-.4zM128.3 213.7c3.7 0 7.2-.8 10.8-1.5 3.4-.7 7-1.7 10.4-.6-.7-.7-1.7-.5-2.6-.5h-27.1c1.3.6 2.4 1.5 3.8 2 1.6.4 3.2.6 4.7.6zM115.2 230.6c.7.4 1.4.8 2 1.4.4-1.5.8-2.9 1.2-4.4-.7-.2-1.5-.3-2.2-.6-.3 1.2-.6 2.4-1 3.6zM113.8 225.5c-.2-.2-.5-.5-.7-.8-.4 1.6-.8 3.2-1.2 4.7 1.9.5 1.6-2.8 1.9-3.9z"/>
    <path class="st1" d="M135.1 268.4c1.1 1 2.6 1.2 3.9 1.7.4-1.4.8-2.7 1-4.1.1-.6.2-2 1.1-2-1.7 0-3.6-.3-5 .9-.8.6-2.1 2.4-1 3.5zM163.1 234c2.3-2.3-2.1-4.4-3.4-5.7-1.4-1.4-1.5-3.5-2.7-5-1.1-1.4-2.9-1.4-4 0-2.3 3.1.8 7 2.2 9.8.7 1.3 1.3 3 3.1 3.2 1 .1 2-.5 2.8-1.1.5-.4 1.1-1.2 2-1.2zM169.8 275.4c.6 2.1 2 3.8 3 5.7-.2-1.4-.9-2.8-1.4-4.1-.5-1.2-1-2.6-2-3.6 0 .7.3 1.3.4 2zM111 280.8c-.9-1.8-1.7-4.9-4-5.5-1.2-.3-2.3.3-2.6 1.5-.3 1.2.4 2.5 0 3.7-.4 1.3-2.1 1.4-2.7 2.6-.9 1.6.7 2 1.9 2.4 1.5.6.7 1.9.9 3.1.3 1.7 2.4 1.8 3.7 2.4-1.4-3.9 4.2-6.3 2.8-10.2zm-6.5 3.8c-.6 0-1.6.3-2-.3-.5-.6-.1-1.4.5-1.7 1.3-.6 1.5 1.1 1.5 2z"/>
    <path d="M173.3 225.2c-.1-4.1.6-8.8-1.3-12.6-.8-1.6-2.1-2.4-3.8-2.3-2.3 0-4.7.1-7 .1-10.1 0-20.1.3-30.2.1-2.5-.1-5.1-.2-7.6-.3-2.1-.1-4.5-.3-6.6.2-4.1 1-3.3 7.1-3.6 10.2-.4 4.6-2.4 8.9-3.7 13.2-.6 2.1-1 4.3-1.4 6.4-.1.7-.3 1.5-.8 2.1-.6.7-1.4 1-2 1.6-1.3 1.3-.8 3.2-.8 4.9.1 2.7 0 5.4-.2 8.1-.1 2-.5 4.2.1 6.2.6 2.1 2.6 2.4 4.4 3-1.1 2.7 2.4 2.5 4 1.9 0 0-1.8-.2-2-.2 2.1 0 4.2.7 6.4.8 2.3.2 4.6-.1 7-.1 3.5.1 8.7 1.2 9.2-3.7.3-3.4-2.4-6.1-5.6-6.6-4.1-.7-8.1 1.4-12.1 1.2-3.9-.2-8.2-2.2-10-5.9 0 2.8-.3 5.7-.1 8.5.1 2.1 1.4 3.1 3.3 3.6-1.6-.4-3.2-1-3.6-2.8-.5-2.3 0-5 .1-7.3 0-1.1 0-2.2.1-3.3.1-1.3 1-1.3 2.2-1.5 2.4-.4 4.4 0 6.7.8 2.1.7 4.8 1.9 7 .9 1.8-.9 1.8-2.9.9-4.5-.5-.9-1.3-1.5-2-2.2-.7-.7-1.1-1.7-1.8-2.4-1.2-1.1-3.3-.1-3.5-2.2-.3-2.6 3.7-8.1 0-9.6-.7 2.8-1.7 5.5-2.2 8.3-.2 1-.2 2-.8 2.9-.8 1.1-2.1 1-3.3 1.1 0-1.1.5-2.1.8-3.1.4-1 .6-2.1.9-3.1.6-2.3 1.3-4.7 1.9-7-.3 0-.6 0-.9.2.6-2.5 1.2-5 2.1-7.4 0 .5.3 1 .7 1.4.2-.6.1-1.3.6-1.7.7-.6 1.7 0 2.5 0-.3 1-1.4 3 .1 3.6 1.5.7 1.7-1.5 2.2-2.4.7-1.4 2.2-1.5 3.5-1.5 1.7 0 3.3.1 5 .1 3.2.1 7 1.3 9.3-1.4 2.1-2.3 4.8-3 7.7-1.9 2.3 1 5.2 2.5 7-.2 1.2-1.8 1.4-4.6 0-6.4-2.4-3-7.8-1.9-10.9-1.2-3.8.8-7.5 2.1-11.3 2.3-1.9.1-3.9 0-5.8-.7-1.7-.6-3.1-1.7-4.6-2.5 4.1.3 8.2 0 12.3 0h24.8c4 0 8-.8 12-.2-.8.1.3 1.3.4 1.6.6 1.1 1.3 2.2 2 3.4 1.3 2.3 1.4 4.3 1 6.9-.2 1.1-.4 2.3-.3 3.4.1 1.2.6 2 1 3.1.7 1.8-.2 4.3-1.3 5.7-1.2 1.5-2.9 2.2-4.5 2.9-1.5.7-3.2 1.7-2.9 3.6.3 2 2.5 3.3 4 4.4l3 2.1 1.5.9c.4.2.9.2 1.2.5.7.6.3 2 .3 2.9 0 1.3.1 2.7.2 4 0 1.3.1 2.7 0 4 0 .6-.2 1.9.8 1.9-.7-12.2-1.3-24.5-1.7-36.8z"/>
    <path d="M170 273.1c1.9 2.5 3.3 5.7 3.8 8.8-.2-.5-.3-1-.5-1.5-1.4-4.4-3.4-8.8-7.5-11.3 1.8-.1 3.5-.3 5.3-.2 1.1 0 2.5.3 3.1-.8.4-.7 1-3.7.1-4.3-1-.6-.7 1.2-.7 1.6.1 1 .1 2-.7 2.7-1.1.9-3 .5-4.3.5-1.9-.1-3.8 0-5.7.1 4.2.5 6.9 4.5 8.5 8.1 2.3 5 2.7 10.5 3.3 15.9.1 1.2.5 2.7.1 3.8-.2.5-.6.9-1.2.8-.8-.1-1-1.1-1.1-1.8-.8-5-1.1-9.8-3.5-14.4-1.3-2.5-3-4.8-5.2-6.6-1.1-.9-2.4-1.6-3.7-2.5-1-.7-2.1-1.8-3.4-1.8.2 2-3.8 1-4.8.9-3.9-.5-8 .2-11.6 1.9 1-1.2-.8-2.4-1.7-2.8-1.5-.7-3.3-.6-4.6-1.8-2.5 3.2-7 2.3-10.5 2.1-2.6-.1-5.2-.2-7.8 0-1.4.1-2.7.3-4.1.2-1.1 0-2.3-.4-3.3 0-.3.1-.8.4-1 .7 0-.4.2-.7.6-.9.9-.5 2.1 0 3.1-.1.5-.1 1.7-.7 2 0-.4-.8-1.7-.2-2.4-.3-1-.1-2.3-.9-3.3-.2-1.4 1 .1 2.8-.4 4.1-.4.9-1.3.8-2.1 1.2-1 .5-1.2 1.5-1.2 2.5 0 .9.6 1.9.2 2.8-.5 1-1.8.6-2.4 1.4-.7.7-.8 2-.3 2.8.5.9 1.6 1 2.2 1.8.5.7.3 1.6.5 2.3.3 1.1 1 1.6 1.9 2 4.8 2.4 10 2.5 15.2 2.7 2.5.1 5.2.7 7.6 0 2.2-.7 3.1-2.6 3.8-4.6.8-2.5 1.9-5 2.5-7.6.6-2.3 1-4.5 2.8-6.2 2.9-2.8 7.4-3.3 11.2-3.3 2.6 0 5.1.1 7.7-.4 2.5-.5 4.3 1.4 6.1 2.8 4 3.3 6.5 7.8 8 12.8.4 1.5.8 3.1.9 4.6 0 1.4-.3 2.9.2 4.3.4.9 1.4 1.9 2.5 1.6 1.2-.4 1-1.7 1-2.7-.1-1.3 0-2.7-.2-4-.1-1.1-.6-2.3-.5-3.4.1-.6.1-1 .2-1.5l.3.3c.9.8 2.3.4 3.4.3 1.3-.1 2.4-.3 2.7-1.8.3-1.3-.1-2.7-.3-4-.2-1.4-.2-2.7.6-3.9 1-1.4 2.5-2.5 3.7-3.7-5.1.1-10.1 0-15.1 0zm-49.9 12.5c-1 2.3-2.2 6.3.9 7.5-2.7-.3-5.5 0-8.2-.5-2.4-.4-4.8-1.5-7-2.5-.9-.4-1.6-1-1.5-2.1 0-.8.5-1.7-.2-2.4s-1.9-.2-2.4-1.1c-.5-.8-.2-2.1.6-2.6.8-.6 2-.3 2.3-1.5.3-1-.3-2-.3-3 0-2.2 2.8-1.4 3.2-3.3.1-.6-.2-1.4-.2-2.2 0 .1.1.1.2.2.7.6 1.8-.4 2.4-.6 1.1-.4 2.3-.4 3.4 0 1 .4 1.9 1 3 1.1 2.3.3 4.6-1.2 6.8-.3 1.9.7 3 2.6 4.7 3.6-2.7 3.1-6 5.8-7.7 9.7zM207.9 273.2c.8.2 2.5 0 2.5 1.2.8-.8 1.7.3 2.3.8 1.1 1 2.3 1.8 3.4 2.7.7.6 3.3 2.5 2.2 3.5 1.3 0 2.2 2.4 1.3 3.3.6 0 .5 1.6 1.7 1.6-.6-3.5-2-6.9-4.1-9.8-.9-1.2-2-2.5-3.4-3.1-1.9-.8-3.9-.3-5.9-.2z"/>
    <g>
        <path d="M166.3 283.7c-.1-.1-.1-.2-.2-.4.1.2.2.3.2.4z"/>
        <path d="M166.2 283.4c-.2.1-.5.2-.7.2.2 0 .5-.2.7-.2zM153.4 306c-.6.2-.6-.8-1.2-.7-.6.1-.5.9-.2 1.3.3.5 1.2.7 1.7.5.8-.3.8-1.1.8-1.9-.4.1-1.1.3-1.1.8zM154.5 273.6c0-.5-1-.5-1.4-.4-.8.2-.9 1-1.3 1.6.4 0 .7.1 1.1-.1.2-.1 0-.4.2-.4.6-.1.8.7 1.3.9.1-.5.1-1.1.1-1.6zM150.1 306c-.6 0-.8-.8-1.3-1 0 .9.3 1.6 1.2 1.8 1.6.3.8-.9 1.4-1.6-.5.1-1.1.3-1.3.8zM151.2 274.7c-.1-.7-.3-1.4-1.2-1.5-.7-.1-1.5.4-1.4 1.1.1.9.4.5.8.3.2-.1.3-.4.6-.5.5-.1.9.5 1.4.5 0 .1-.1.1-.2.1.1.1.1.1 0 0zM134.8 291.3c.5 0 1.2.4 1.5-.2.2-.3-.2-1.3-.6-1.1 1-.4-.1-1.8-.9-1.1-.7.6 0 1.8 0 2.4zM167.6 289.9c0 .4-.2 0-.4.3-.3.3-.4.7-.5 1.1 1.1 0 2.8-1.3 1.6-2.4-.9-.8-1.9.6-.7 1zM136.6 287.1c-1 .1.1-.7.2-.9.2-.6-.4-1-.9-.8-1.8.5-.5 2.5.7 2.7-.1-.3 0-.7 0-1zM141.2 276.8c-.6.5-2 1.1-1.5 2.1.2.4.7.8 1.1.5.5-.3-.2-.9.2-1.3.3.3 1.1.4 1.3-.2.1-.6-.7-.9-1.1-1.1zM167.4 293.3c0 .2-1 .6-1.1 1.2.6 0 1.2.1 1.7-.4.4-.4.7-1.2.3-1.7-.8-1-2.2.5-.9.9zM138.7 279.2c-.4.6-1.6 1.2-1.1 2.1.2.3.5.6.9.4.5-.3.1-.5.3-.8.2-.4-.2-.3.3-.5.3-.1.4.3.7.1.5-.4-.8-1.1-1.1-1.3zM166.5 286.7c1.2 0 .4.2.3.7-.3 1.1 1.2.6 1.6 0 1.1-1.8-2.4-2.4-1.9-.7zM162 276.8c-.4.4-.8.8-1.1 1.2.5.3 1.1-.1 1.5.4.1.1-.2.1-.2.2.2.4.4.7.6 1.1.4-.5 1-1.2.6-1.9-.3-.5-1-.6-1.4-1zM147.5 273.7c-.8.2-2.1.3-2.1 1.3 0 .4.2.9.7.9.6 0 .4-.8.6-1.1-.2.4.8.7 1 .5.7-.3.1-1.2-.2-1.6zM142.3 302.2c-.4-.3-.9-.5-1.3-.1-.4-.4.3-1-.2-1.3-.5-.3-1.1.2-1.3.7-.2.6.4 1.3 1 1.5.8.3 1.3-.3 1.8-.8zM140.1 300c-.4-.4-1-.3-1.2-.5-.4-.4.1-1-.2-1.5-.8.6-1.3 1.5-.5 2.3.6.8 1.2.3 1.9-.3zM164.6 299.3c-.3.3-1.2 0-1.4.4-.4.8.9.9 1.4.7.7-.2 1.3-1.1.9-1.8-.4-.9-1.6 0-.9.7zM165.7 296.1c.2.1.5.2.7.4-.3.5-1.2.1-1.3.8-.1 1 1.4.7 1.9.4 1.4-1.3-.9-3.2-1.3-1.6zM155.7 273.7c-.2.5-.4 1.1-.5 1.6.4.1 1-.5 1.3-.4.5.2.1 1.7 1.1 1 .6-.4.3-1.3-.2-1.6-.5-.4-1.2-.4-1.7-.6zM146.8 305.4c-.6 0-.3-.9-.8-1.1-.6-.2-.8.7-.7 1.1.1.6.9 1.1 1.5 1 .8-.1 1-.8 1.2-1.5-.4-.1-1 0-1.2.5zM164.6 279.2c-.4.3-.8.6-1.3.9.2.2.5.6.8.7.1 0 .4-.4.5-.2.2.3-.2.2-.2.4.1.4.1.8.2 1.1.4-.3.8-.7 1.3-1-.5-.5-.9-1.2-1.3-1.9zM135.9 293.6c-.1-.5 1.2-1.2.3-1.7-.7-.3-1.3.8-1.3 1.3-.1.6.5 1.8 1.3 1.5.6-.2.6-1.3-.3-1.1zM135.8 284.3c.5.2 1 .4 1.4.7.1-.3.3-.5.3-.9 0-.2-.5-.2-.4-.5.1-.5.9-.7 1.2-1.1-.6-.2-1.3-.5-1.9 0-.5.6-.4 1.3-.6 1.8zM162 301.3c.2.2.4.6.2.9-.4-.4-.9-.2-1.3.1 1.4 1.4 3.4-.3 1.9-1.8-.3.2-.4.6-.8.8zM137.8 296.5c-.1 0-.8.1-.9 0-.1-.2.7-.7.1-1.2-.5-.4-1 .2-1.1.7-.2 1.2 1.3 1.8 2.3 1.3-.2-.2-.3-.5-.4-.8zM156.6 304.5c0 .2.1.5.2.7-.5 0-.8-.8-1.4-.4-.5.3-.2 1.1.2 1.4 1.5.9 2.2-1.1 1.8-2.2-.2.2-.5.4-.8.5z"/>
        <path d="M165.5 283.6c.3-.1.6 0 .8.2-.5.2-.4.9-.3 1.3.4-.2 1.1-.3 1.3-.8.3-.6-.1-1.3-.6-1.7-1.3-.8-.7 1-1.2 1zM159.8 303.9c-.4.4-1.1-.5-1.5-.3-.9.5.6 1.2 1 1.3.7.1 1.5-.2 1.7-1 .3-1.4-1.8-1-1.2 0zM161 276.1c-.6-.4-2.4-1.8-2.8-.5-.2.7.4.7.9.8.1 0 .2-.4.4-.3.3.2.1.7-.1.8.3.2.6.4.9.5.2-.4.5-.8.7-1.3zM142.1 276.1c.3.4 0 1 .6 1.2.4.2.7-.3 1.1-.3-.2 0 .8-.6.9-.7.4-.2.8-.2.3-.9-.8-1-2.2.3-2.9.7zM143.8 304.1c-.4-.3-.1-1.8-.9-1.4-.5.2-.4 1.3-.2 1.7.3.7 1.6 1.3 2.1.4.2-.6-.5-1.5-1-.7z"/>
        <path d="M163.8 281.9c-3.4-5-10.1-7.5-16-5.9-5.8 1.5-10.2 6.9-10.8 12.9-.5 6.1 3.1 12.2 8.7 14.7 5.4 2.4 12.3 1.2 16.4-3.2 4.6-4.9 5.4-13 1.7-18.5zm-9.9 15.7c-3.3 1.2-7.2-.5-8.9-3.4-1.9-3-1.3-7.3 1.3-9.7 4.2-3.9 12-1.6 13 4.2.6 3.7-1.7 7.8-5.4 8.9z"/>
    </g>
    <path class="st2" d="M187.8 206.7c.3-.2.5-.5.8-.8-.7 0-1.5-.6-2.2 0-.6.6-.1 1.5-.1 2.1.5-.4 1-.8 1.5-1.3z"/>
    <path class="st1" d="M184.2 254c-.7-.2-1.3-.4-1.9-.6.8 3.8 5.4 3.4 8.3 4.7-.7-2.7-4-3.3-6.4-4.1z"/>
    <path class="st2" d="M184 234.6c-1.2-1.2-1.9-2.9-2.3-4.6-.5 3.1-1 6.2-1.1 9.3 1.2-1.6 2.4-3.1 3.4-4.7z"/>
</svg>
