<svg xmlns="http://www.w3.org/2000/svg" viewBox="0 0 512 512">
    <path fill="#1e1e1e" d="M239.1 214.5h-23.9v-3.9h23.9v3.9zm37.5-4h-23.9v3.9h23.9v-3.9zm37.7 0h-23.9v3.9h23.9v-3.9zm37.6 0H328v3.9h23.9v-3.9zm-160.3 25.6v28.5c0 .5.5 1 1.1 1h.7c.3 0 .5-.1.7-.3.2-.2.3-.4.3-.7v-28.5h-2.8zm3.7 28.8c.1.3.3.4.5.5.1.1.3.1.4.1h.7c.5 0 1.1-.4 1.1-1.1V236h-2.9v28.5c.1.1.1.3.2.4zm3.7.3c.2.2.4.3.7.3h.7c.5 0 1.1-.4 1.1-1.1V236h-2.8v28.5c0 .3.1.6.3.7zm7.3-21.8h-2.2v5.4h.8l1.4-2.8v-2.6zm-3 24.1v-15.6V236.1h-1.1v31.4h1.1zm-12.4 0v-31.4h-1.1v31.4h1.1zm185 19.7c-.3-.6-.4-.9-.4-1.5v-4.1c0-.4.3-.6.6-.6h3.5v-5.1l-3.7-1.8h-38c4.4 2.6 7.4 7.3 7.4 12.8v.6h30.8c-.2-.1-.2-.1-.2-.3zM323 274h-2.6l-1.5.8c-.1.1-.2.1-.3.1h-6.2c-.1 0-.2 0-.3-.1l-1.5-.8h-6.4c4.5 2.6 7.4 7.3 7.4 12.8v.6h3.9v-.6c.1-5.5 3.1-10.3 7.5-12.8zm-33.2 0h-21.1v10.6h-.1c0 .4-.3.6-.6.6h-43.1c-.4 0-.6-.3-.6-.6v-10.7h-29.6v13.5h87.8v-.6c-.2-5.5 2.9-10.3 7.3-12.8zm-82.1-38.7h.7c.1 0 .2.1.3.1.1 0 .2.1.3.2h.1l.3.3c.1.1.1.2.2.3v.1c.1.1.1.3.2.4v.1c0 .2.1.4.1.6v4.8s.2 1.7-1.7 1.7l-4.1 7.8v17h1.7v.2h1v3.1c0 .1 0 .2.1.2l.1.1.1.1h5.6c.4 0 .4-.4.4-.4v-3.1h.9v-.2h10.7v-10.1c0-.4.3-.6.6-.6H268c.4 0 .6.3.6.6v10.3h33.7v1.4h.9v2.3h5.8v-.4l3.7 2h6.2l3.7-2.1v.4h3.9c.6-.2 1.2-.3 1.9-.4v-2h.7v-1.4h43l-.2-.2c1 0 1.1-1.3 1.1-1.3V217c0-.2 0-.4-.1-.5 0-.1 0-.1-.1-.2 0-.1-.1-.2-.1-.3 0-.1-.1-.1-.1-.1 0-.1-.1-.1-.2-.2l-.1-.1c-.1 0-.1-.1-.2-.1 0 0-.1 0-.1-.1-.1 0-.1 0-.2-.1h-.4-.1v-.2H370v-.1H188.2v20.4h19.5zm17.1 49.3h43.1v-26h-43.1v26zm-37.7 2.1c0 8.2-6.6 14.8-14.7 14.7-8.1 0-14.7-6.6-14.7-14.7s6.6-14.7 14.7-14.7 14.7 6.6 14.7 14.7zm-5.9 0c0-4.9-3.9-8.8-8.8-8.8s-8.8 3.9-8.8 8.8 3.9 8.8 8.8 8.8 8.8-3.9 8.8-8.8zm163.5 0c0 .3 0 .4-.1.5v.6c-.6 7.3-6.8 13.1-14.3 13.1-7.5 0-13.7-5.7-14.3-13.1v-.6-.6c0-5.3 2.9-9.9 7.2-12.4.4-.3.7-.4 1.2-.6.1 0 .2-.1.3-.1.5-.3 1.1-.4 1.7-.6.5-.2 1.2-.3 1.8-.4.2 0 .4-.1.6-.1.5-.1 1.1-.1 1.6-.1 2.1 0 4.1.5 6 1.3l1.2.6c4.3 2.6 7.1 7.3 7.1 12.5zm-7.7 0a6.7 6.7 0 1 0-6.7 6.7c3.7 0 6.7-2.9 6.7-6.7zm-25.7 0c0 .3-.1.4 0 .6v.6c-.6 7.3-6.7 13-14.2 13-7.5 0-13.6-5.7-14.2-13v-.6-.6c0-5.3 2.9-9.8 7.1-12.3.4-.3.7-.4 1.2-.6 1.8-.8 3.7-1.2 5.9-1.2 2.1 0 4.1.4 5.9 1.2l1.2.6c4.2 2.4 7.1 7.1 7.1 12.3zm-7.7 0c0-3.7-2.9-6.6-6.6-6.6-3.7 0-6.6 2.9-6.6 6.6 0 3.7 2.9 6.6 6.6 6.6 3.6 0 6.6-2.9 6.6-6.6zm-174.7-21.5v-18.4c0-1.8 1-2.1 1.9-2.1 0 0 3.7-20.5 4.6-24 .9-3.5 1.8-3.9 4.8-5 2.9-1.1 18.2-2.7 24.4-2.7 6.2 0 12.3.4 13.3.6 1 .1 1.5.5 1.7.8.2.3 1 1 1.6 1.2.6.3.8.7.9 1.2 0 .4.2 2.1.3 2.9 0 0 .5-.1.6 0 .9 4.5 1.7 36.4 1.7 40.9h1.2v.3h-1.3c-.2 0-.4.2-.5.4h-19.3c-1.2 0-3.5.4-5.6 1.3-1.8.7-4.2 2.1-5.7 4.6h-16.8c-.3 0-.4.2-.8.5h-5.4c-1.2 0-1.6-1.9-1.6-2.5zm9.6-21.7c.2.3.6.4 1.2.4h5.8c3.1 0 4-.8 4.9-1.6l.7-.6c1.5-1.2 4.4-1.4 5.6-1.5.7 0 3.7-.2 7-.2 1.8 0 2.1-.8 2.1-1.9V225c0-2-1.3-1.8-2.1-1.8l-20.4.1c-2 0-2.1.9-2.4 2.2l-.1.4c-.3 1.2-1.9 11.7-2.4 15.6-.2.9-.2 1.6.1 2zm-7.3 1.6c.8.1 1.2-.7 1.5-1.6.2-.8 4.9-21 4.9-21h-2.1c-1.2 5.8-4.2 22.2-4.3 22.4v.2zm60.9 28.5c-.1-.3-.3-.5-.4-.8-.4-.8-1.1-1.7-1.9-2.5-1-1.1-2.2-2-3.7-2.6h-.1v-6.4h-1.2v.4h-19.9c-1.2 0-3.3.4-5.4 1.3-1.2.4-2.5 1.2-3.7 2.3-.7.6-1.4 1.4-2 2.3h-17.1v.6h-4.5c0 .1 0 .4-.1.8-.1.3-.1.4-.3.6l-1.6 1.7c-.3.3-.4.8-.4 1.2v.1h-.2c-.5 0-.5.2-.5.4v.8l.2 1v5.4l.2 2.1V289.1c0 .4 0 .6.1.7.1.2.4.9.7 1.6.2.4.4.7.5.9 0 .1.1.1.1.1s.2.1.3.1h.3s5.5.2 6 .2h.9c3.5 0 6.4 0 8.7-.1h6.5c0-.5.2-2.3.3-3.8 0-.4.1-.9.1-1.2 0-.3 0-.4.1-.6v-.3l.4-2.9c0-.2.1-.6.2-1.2 0-.2.1-.4.1-.5.1-.4.1-.8.2-1.2.1-.4.1-.6.2-.9 2.6-11.2 8.8-12.7 15.3-12.7h6.3v.2c.1.1.3.4.4.4 1.5.3 2.9.8 4.3 1.6.8.4 1.5 1 2.3 1.7.3.3.5.4.8.7.5.5 1 1.2 1.5 1.8 2.4 3.3 4.3 8.6 4.3 16.7v3c0 .2 0 .4.1.7 0 .1.1.1.1.2.1.1.2.1.3.1h2.8v-7h.2v-13.7l-1.8-.1c0 .1 0 .1 0 0zm185-56.7v51.3h1.5v-51.3s-.1-4.5-4.2-4.5h-7.1v1.6h7.1c.1 0 2.7.2 2.7 2.9zm5.9 74.3c-.1.4-.3.6-.6.9-.1.2-.4.3-.5.4-.3.1-.4.1-.7.2s-.5.1-.7.1c-.7 0-1.3-.4-1.7-.8-.3-.4-.4-.7-.6-1-.1-.1-.2-.2-.2-.3-.2-.3-.3-.5-.4-.9-.1-.4-.3-.7-.4-1.1-.3-.6-.5-1.2-.7-1.6v-.1c-.1-.4-.2-.5-.3-.7-.1-.2-.1-.4-.1-.5v-4.1H380.5c.2 0 .4.1.4.2.1 0 .1.1.1.1v.1c.1.1.1.3.2.4.2.5.4 1.2.6 2.1.5 1.6 1.1 3.5 1.2 3.8l-.1.3c.2.8.4 1.7.1 2.5zm-.5-1.2c0-1-.8-1.8-1.8-1.8s-1.8.8-1.8 1.8.8 1.8 1.8 1.8 1.8-.9 1.8-1.8z"/>
</svg>
